<svg width="50" height="39" viewBox="0 0 50 39" fill="none" xmlns="http://www.w3.org/2000/svg">
<path d="M9.08945 38.806V36.2247C9.08945 35.235 8.48906 34.5898 7.45996 34.5898C6.94551 34.5898 6.38809 34.7619 6.00215 35.3212C5.70215 34.8479 5.27344 34.5898 4.63027 34.5898C4.20137 34.5898 3.77285 34.7188 3.42969 35.1921V34.6759H2.5293V38.806H3.42969V36.5257C3.42969 35.7945 3.81562 35.4502 4.41602 35.4502C5.01602 35.4502 5.31641 35.8375 5.31641 36.5257V38.806H6.2168V36.5257C6.2168 35.7945 6.64531 35.4502 7.20273 35.4502C7.80313 35.4502 8.10313 35.8375 8.10313 36.5257V38.806H9.08945ZM22.4236 34.6759H20.966V33.4283H20.0656V34.6759H19.251V35.4931H20.0654V37.3863C20.0654 38.3329 20.4514 38.892 21.4805 38.892C21.8664 38.892 22.2949 38.763 22.5953 38.591L22.3379 37.8165C22.0807 37.9885 21.7807 38.0316 21.5662 38.0316C21.1375 38.0316 20.966 37.7735 20.966 37.3432V35.4931H22.4236V34.6759ZM30.0557 34.5896C29.5412 34.5896 29.1982 34.8479 28.9838 35.1921V34.6759H28.0834V38.806H28.9838V36.4828C28.9838 35.7945 29.2838 35.4073 29.8412 35.4073C30.0127 35.4073 30.2271 35.4504 30.3986 35.4933L30.6559 34.633C30.4844 34.5898 30.2271 34.5898 30.0557 34.5898V34.5896ZM18.5221 35.02C18.0932 34.7188 17.493 34.5898 16.8498 34.5898C15.8209 34.5898 15.135 35.1061 15.135 35.9235C15.135 36.612 15.6494 36.999 16.5498 37.1282L16.9785 37.1713C17.4502 37.2571 17.7074 37.3863 17.7074 37.6015C17.7074 37.9025 17.3645 38.1177 16.7641 38.1177C16.1639 38.1177 15.6922 37.9025 15.392 37.6875L14.9633 38.3758C15.435 38.7199 16.0781 38.892 16.7211 38.892C17.9217 38.892 18.6078 38.3329 18.6078 37.5584C18.6078 36.827 18.0504 36.4397 17.1928 36.3107L16.7641 36.2676C16.3781 36.2245 16.0781 36.1387 16.0781 35.8806C16.0781 35.5793 16.3781 35.4073 16.8498 35.4073C17.3645 35.4073 17.8789 35.6223 18.1361 35.7514L18.5221 35.02ZM42.4469 34.5898C41.9322 34.5898 41.5893 34.8479 41.3748 35.1921V34.6759H40.4744V38.806H41.3748V36.4828C41.3748 35.7945 41.675 35.4073 42.2322 35.4073C42.4039 35.4073 42.6184 35.4504 42.7898 35.4933L43.0471 34.633C42.8756 34.5898 42.6184 34.5898 42.4469 34.5898ZM30.9561 36.7409C30.9561 37.9885 31.8135 38.892 33.1428 38.892C33.743 38.892 34.1717 38.763 34.6004 38.4189L34.1717 37.6875C33.8287 37.9456 33.4857 38.0746 33.0998 38.0746C32.3709 38.0746 31.8564 37.5584 31.8564 36.7409C31.8564 35.9666 32.3709 35.4502 33.0998 35.4073C33.4857 35.4073 33.8287 35.5362 34.1717 35.7945L34.6004 35.0631C34.1717 34.7188 33.743 34.5898 33.1428 34.5898C31.8135 34.5898 30.9561 35.4933 30.9561 36.7409ZM39.274 36.7409V34.6759H38.3736V35.1921C38.0734 34.805 37.6447 34.5898 37.0873 34.5898C35.9297 34.5898 35.0293 35.4933 35.0293 36.7409C35.0293 37.9885 35.9297 38.892 37.0873 38.892C37.6875 38.892 38.1164 38.677 38.3736 38.2897V38.806H39.274V36.7409ZM35.9725 36.7409C35.9725 36.0095 36.4441 35.4073 37.2158 35.4073C37.9447 35.4073 38.4594 35.9666 38.4594 36.7409C38.4594 37.4723 37.9447 38.0746 37.2158 38.0746C36.4441 38.0314 35.9725 37.4723 35.9725 36.7409ZM25.2107 34.5898C24.0102 34.5898 23.1525 35.4502 23.1525 36.7409C23.1525 38.0316 24.01 38.892 25.2535 38.892C25.8537 38.892 26.4541 38.7199 26.9258 38.3329L26.4969 37.6875C26.1539 37.9456 25.7252 38.1177 25.2965 38.1177C24.7391 38.1177 24.1816 37.8596 24.0529 37.128H27.0973V36.784C27.1402 35.4502 26.3684 34.5898 25.2105 34.5898H25.2107ZM25.2107 35.3642C25.768 35.3642 26.1541 35.7085 26.2396 36.3539H24.0959C24.1816 35.7945 24.5676 35.3642 25.2107 35.3642ZM47.549 36.7409V33.041H46.6486V35.1921C46.3484 34.805 45.9197 34.5898 45.3623 34.5898C44.2047 34.5898 43.3043 35.4933 43.3043 36.7409C43.3043 37.9885 44.2047 38.892 45.3623 38.892C45.9627 38.892 46.3914 38.677 46.6486 38.2897V38.806H47.549V36.7409ZM44.2477 36.7409C44.2477 36.0095 44.7191 35.4073 45.491 35.4073C46.2199 35.4073 46.7344 35.9666 46.7344 36.7409C46.7344 37.4723 46.2199 38.0746 45.491 38.0746C44.7191 38.0314 44.2477 37.4723 44.2477 36.7409ZM14.1486 36.7409V34.6759H13.2482V35.1921C12.948 34.805 12.5193 34.5898 11.9619 34.5898C10.8043 34.5898 9.90391 35.4933 9.90391 36.7409C9.90391 37.9885 10.8043 38.892 11.9619 38.892C12.5623 38.892 12.991 38.677 13.2482 38.2897V38.806H14.1486V36.7409ZM10.8043 36.7409C10.8043 36.0095 11.276 35.4073 12.0477 35.4073C12.7766 35.4073 13.2912 35.9666 13.2912 36.7409C13.2912 37.4723 12.7766 38.0746 12.0477 38.0746C11.276 38.0314 10.8043 37.4723 10.8043 36.7409Z" fill="black"/>
<path d="M18.2227 3.3125H31.7285V27.6632H18.2227V3.3125Z" fill="#FF5F00"/>
<path d="M19.0799 15.4881C19.0799 10.5406 21.3951 6.1522 24.9537 3.31265C22.3385 1.24761 19.0371 0 15.4355 0C6.90293 0 0 6.92652 0 15.4881C0 24.0495 6.90293 30.9762 15.4354 30.9762C19.0369 30.9762 22.3383 29.7286 24.9537 27.6633C21.3951 24.8669 19.0799 20.4356 19.0799 15.4881Z" fill="#EB001B"/>
<path d="M49.9508 15.4881C49.9508 24.0495 43.0478 30.9762 34.5154 30.9762C30.9139 30.9762 27.6125 29.7286 24.9971 27.6633C28.5986 24.824 30.8711 20.4356 30.8711 15.4881C30.8711 10.5406 28.5557 6.1522 24.9971 3.31265C27.6123 1.24761 30.9139 0 34.5154 0C43.0478 0 49.951 6.96963 49.951 15.4881H49.9508Z" fill="#F79E1B"/>
</svg>
