<svg width="24" height="24" viewBox="0 0 24 24" fill="none" xmlns="http://www.w3.org/2000/svg">
<path opacity="0.1" fill-rule="evenodd" clip-rule="evenodd" d="M0 12C0 5.37258 5.37258 0 12 0C18.6274 0 24 5.37258 24 12C24 18.6274 18.6274 24 12 24C5.37258 24 0 18.6274 0 12Z" fill="white"/>
<path fill-rule="evenodd" clip-rule="evenodd" d="M18.3996 11.9907C18.3996 12.4236 18.3555 12.8558 18.269 13.2771C18.1846 13.6884 18.0596 14.0922 17.8958 14.4782C17.7359 14.8574 17.5374 15.2228 17.3055 15.5636C17.0771 15.9022 16.8139 16.2199 16.5248 16.5095C16.2351 16.7978 15.9164 17.0602 15.5779 17.2896C15.236 17.5199 14.8701 17.7181 14.4907 17.8788C14.1041 18.0417 13.6994 18.1665 13.2884 18.2508C12.8666 18.3375 12.4328 18.3818 11.9993 18.3818C11.5656 18.3818 11.1318 18.3375 10.7105 18.2508C10.2989 18.1665 9.89422 18.0417 9.50795 17.8788C9.12856 17.7181 8.76228 17.5199 8.42039 17.2896C8.08194 17.0602 7.76317 16.7978 7.47409 16.5095C7.18471 16.2199 6.92156 15.9022 6.6928 15.5636C6.46216 15.2228 6.26339 14.8574 6.10277 14.4782C5.93899 14.0922 5.81369 13.6884 5.72899 13.2771C5.64337 12.8558 5.59961 12.4236 5.59961 11.9907C5.59961 11.5576 5.64335 11.1244 5.72902 10.7041C5.81371 10.2928 5.93902 9.88833 6.10279 9.50293C6.26342 9.12347 6.46219 8.75774 6.69283 8.41695C6.92159 8.07806 7.18474 7.76098 7.47412 7.47106C7.7632 7.1827 8.08196 6.9209 8.42042 6.69185C8.7623 6.46059 9.12859 6.26246 9.50797 6.10142C9.89425 5.93818 10.2989 5.81305 10.7105 5.72943C11.1318 5.64331 11.5656 5.59961 11.9993 5.59961C12.4328 5.59961 12.8666 5.64331 13.2885 5.72943C13.6994 5.81308 14.1041 5.9382 14.4907 6.10142C14.8701 6.26243 15.2361 6.46059 15.5779 6.69185C15.9164 6.9209 16.2352 7.1827 16.5249 7.47106C16.814 7.76098 17.0771 8.07806 17.3055 8.41695C17.5374 8.75774 17.7359 9.1235 17.8958 9.50293C18.0596 9.88833 18.1846 10.2928 18.269 10.7041C18.3555 11.1244 18.3996 11.5576 18.3996 11.9907ZM9.6673 7.05414C8.14314 7.77285 7.00558 9.17527 6.65087 10.8654C6.79496 10.8667 9.07258 10.8954 11.6968 10.1991C10.7508 8.52085 9.74012 7.15122 9.6673 7.05414ZM12.1496 11.0396C9.33541 11.8809 6.63494 11.8203 6.53807 11.8166C6.53649 11.8753 6.53369 11.932 6.53369 11.9907C6.53369 13.3928 7.0634 14.671 7.93407 15.6375C7.93219 15.6347 9.42792 12.985 12.3774 12.0326C12.4487 12.0088 12.5212 11.9876 12.5931 11.967C12.4559 11.6568 12.3062 11.346 12.1496 11.0396ZM15.6089 7.89455C14.6466 7.04727 13.3831 6.53333 11.9993 6.53333C11.5552 6.53333 11.1242 6.58701 10.7114 6.68624C10.7933 6.7961 11.8199 8.15607 12.7546 9.86991C14.817 9.09788 15.5954 7.91451 15.6089 7.89455ZM12.9656 12.8714C12.9535 12.8754 12.9413 12.8789 12.9294 12.8832C9.70458 14.0058 8.65148 16.2682 8.64008 16.2929C9.56796 17.0134 10.7318 17.4481 11.9993 17.4481C12.7562 17.4481 13.4772 17.2942 14.1332 17.0156C14.0522 16.5388 13.7347 14.8674 12.9656 12.8714ZM15.0535 16.5169C16.2808 15.69 17.1524 14.3768 17.3955 12.8557C17.283 12.8196 15.7539 12.3362 13.9897 12.6186C14.7066 14.5859 14.9979 16.188 15.0535 16.5169ZM13.1753 10.6832C13.3022 10.9434 13.425 11.2083 13.5385 11.4746C13.5788 11.5701 13.6182 11.6637 13.6566 11.7573C15.5342 11.5214 17.384 11.9183 17.4631 11.9345C17.4506 10.6407 16.9871 9.4533 16.2202 8.52368C16.2099 8.53831 15.3333 9.80312 13.1753 10.6832Z" fill="white"/>
</svg>
