<svg width="24" height="24" viewBox="0 0 24 24" fill="none" xmlns="http://www.w3.org/2000/svg">
<path opacity="0.1" fill-rule="evenodd" clip-rule="evenodd" d="M0 12C0 5.37258 5.37258 0 12 0C18.6274 0 24 5.37258 24 12C24 18.6274 18.6274 24 12 24C5.37258 24 0 18.6274 0 12Z" fill="white"/>
<path fill-rule="evenodd" clip-rule="evenodd" d="M12.0002 5.59961C10.2621 5.59961 10.0439 5.60721 9.36125 5.63828C8.67991 5.66948 8.21484 5.77734 7.8079 5.93561C7.38696 6.09908 7.02989 6.31775 6.67415 6.67362C6.31815 7.02936 6.09948 7.38643 5.93548 7.80723C5.77681 8.2143 5.66881 8.67951 5.63814 9.36058C5.60761 10.0433 5.59961 10.2615 5.59961 11.9997C5.59961 13.7378 5.60734 13.9553 5.63828 14.638C5.66961 15.3193 5.77748 15.7844 5.93561 16.1913C6.09921 16.6123 6.31788 16.9693 6.67375 17.3251C7.02936 17.6811 7.38643 17.9003 7.8071 18.0637C8.2143 18.222 8.67951 18.3299 9.36072 18.3611C10.0434 18.3921 10.2614 18.3997 11.9994 18.3997C13.7377 18.3997 13.9552 18.3921 14.6378 18.3611C15.3192 18.3299 15.7848 18.222 16.192 18.0637C16.6128 17.9003 16.9693 17.6811 17.3249 17.3251C17.6809 16.9693 17.8996 16.6123 18.0636 16.1915C18.2209 15.7844 18.3289 15.3192 18.3609 14.6381C18.3916 13.9554 18.3996 13.7378 18.3996 11.9997C18.3996 10.2615 18.3916 10.0434 18.3609 9.36071C18.3289 8.67937 18.2209 8.2143 18.0636 7.80737C17.8996 7.38643 17.6809 7.02936 17.3249 6.67362C16.9689 6.31762 16.6129 6.09895 16.1916 5.93561C15.7836 5.77734 15.3182 5.66948 14.6369 5.63828C13.9542 5.60721 13.7369 5.59961 11.9982 5.59961H12.0002ZM11.426 6.75294C11.5964 6.75267 11.7866 6.75294 12.0002 6.75294C13.709 6.75294 13.9115 6.75907 14.5863 6.78974C15.2103 6.81827 15.549 6.92254 15.7746 7.01014C16.0733 7.12614 16.2862 7.26481 16.5101 7.48881C16.7341 7.71281 16.8728 7.92615 16.989 8.22482C17.0766 8.45015 17.181 8.78882 17.2094 9.41283C17.2401 10.0875 17.2468 10.2902 17.2468 11.9982C17.2468 13.7062 17.2401 13.9089 17.2094 14.5836C17.1809 15.2076 17.0766 15.5462 16.989 15.7716C16.873 16.0702 16.7341 16.2829 16.5101 16.5068C16.2861 16.7308 16.0734 16.8694 15.7746 16.9854C15.5493 17.0734 15.2103 17.1774 14.5863 17.206C13.9117 17.2366 13.709 17.2433 12.0002 17.2433C10.2912 17.2433 10.0887 17.2366 9.41402 17.206C8.79002 17.1772 8.45134 17.0729 8.22561 16.9853C7.92694 16.8693 7.7136 16.7306 7.4896 16.5066C7.2656 16.2826 7.12693 16.0698 7.01066 15.771C6.92306 15.5457 6.81866 15.207 6.79026 14.583C6.75959 13.9083 6.75346 13.7057 6.75346 11.9966C6.75346 10.2875 6.75959 10.0859 6.79026 9.41123C6.81879 8.78722 6.92306 8.44855 7.01066 8.22295C7.12666 7.92428 7.2656 7.71095 7.4896 7.48694C7.7136 7.26294 7.92694 7.12427 8.22561 7.00801C8.45121 6.92001 8.79002 6.816 9.41402 6.78734C10.0044 6.76067 10.2332 6.75267 11.426 6.75134V6.75294ZM15.4165 7.81562C14.9925 7.81562 14.6485 8.15922 14.6485 8.58336C14.6485 9.00736 14.9925 9.35137 15.4165 9.35137C15.8405 9.35137 16.1845 9.00736 16.1845 8.58336C16.1845 8.15935 15.8405 7.81562 15.4165 7.81562ZM12.0002 8.71296C10.1851 8.71296 8.71352 10.1846 8.71352 11.9997C8.71352 13.8147 10.1851 15.2857 12.0002 15.2857C13.8153 15.2857 15.2864 13.8147 15.2864 11.9997C15.2864 10.1846 13.8153 8.71296 12.0002 8.71296ZM12.0002 9.8663C13.1783 9.8663 14.1336 10.8214 14.1336 11.9997C14.1336 13.1778 13.1783 14.133 12.0002 14.133C10.8219 14.133 9.86684 13.1778 9.86684 11.9997C9.86684 10.8214 10.8219 9.8663 12.0002 9.8663Z" fill="white"/>
</svg>
