<svg width="74" height="23" viewBox="0 0 74 23" fill="none" xmlns="http://www.w3.org/2000/svg">
<path d="M38.271 7.32362C38.2288 10.5148 41.2377 12.2955 43.5042 13.3543C45.8329 14.4406 46.6151 15.1373 46.6058 16.1088C46.5885 17.5955 44.7483 18.2517 43.0264 18.2772C40.0222 18.3218 38.2753 17.4996 36.8867 16.8778L35.8044 21.7324C37.1977 22.3479 39.7776 22.8846 42.4529 22.9082C48.7328 22.9082 52.8412 19.9365 52.8635 15.329C52.888 9.48147 44.4263 9.15781 44.4841 6.54412C44.5041 5.75159 45.2929 4.90586 47.0215 4.69082C47.8771 4.58219 50.2391 4.49906 52.9169 5.6812L53.968 0.984217C52.5279 0.481541 50.677 0.000204086 48.3726 0.000204086C42.4618 0.000204086 38.3045 3.01237 38.271 7.32362ZM64.0672 0.404781C62.9205 0.404781 61.9542 1.04601 61.5229 2.03002L52.5524 22.5632H58.8277L60.0764 19.2548H67.7447L68.4691 22.5632H74L69.1735 0.404781H64.0672ZM64.9451 6.3906L66.7561 14.7113H61.7964L64.9451 6.3906ZM30.6626 0.405058L25.7162 22.5629H31.696L36.6401 0.404505H30.6626V0.405058ZM21.8164 0.404505L15.5923 15.4867L13.0746 2.66294C12.7792 1.2314 11.6125 0.404781 10.3169 0.404781H0.142508L0 1.04823C2.08877 1.48273 4.46197 2.18354 5.89977 2.9334C6.77967 3.39146 7.03058 3.79188 7.31964 4.88036L12.0883 22.5632H18.4075L28.0957 0.404781H21.8164" fill="url(#paint0_linear_229_1078)"/>
<defs>
<linearGradient id="paint0_linear_229_1078" x1="34.0208" y1="23.3677" x2="34.6565" y2="-0.160626" gradientUnits="userSpaceOnUse">
<stop stop-color="#222357"/>
<stop offset="1" stop-color="#254AA5"/>
</linearGradient>
</defs>
</svg>
