<svg width="24" height="25" viewBox="0 0 24 25" fill="none" xmlns="http://www.w3.org/2000/svg">
<path d="M0.999023 3.49609H2.65327C3.13166 3.49609 3.37085 3.49609 3.5653 3.58283C3.73673 3.6593 3.88317 3.78247 3.98788 3.93826C4.10666 4.11498 4.14764 4.35063 4.22961 4.82195L4.60772 6.99609M4.60772 6.99609L5.49075 12.0735C5.66993 13.1038 5.75952 13.6189 6.02485 13.99C6.25848 14.3168 6.58508 14.5656 6.96213 14.7041C7.39035 14.8614 7.91079 14.8111 8.95167 14.7104L18.613 13.7754C19.6289 13.6771 20.1368 13.6279 20.5212 13.3994C20.8643 13.1954 21.1385 12.8933 21.3086 12.5321C21.499 12.1275 21.499 11.6172 21.499 10.5966V10.5966C21.499 9.51192 21.499 8.96958 21.2912 8.55003C21.1058 8.17581 20.808 7.86899 20.4394 7.67263C20.0262 7.4525 19.4841 7.43645 18.3999 7.40436L4.60772 6.99609Z" stroke="white" stroke-width="1.8" stroke-linecap="round" stroke-linejoin="round"/>
<circle cx="8.49902" cy="19.9961" r="2" stroke="white" stroke-width="1.8"/>
<circle cx="17.999" cy="19.9961" r="2" stroke="white" stroke-width="1.8"/>
</svg>
