<svg width="33" height="23" viewBox="0 0 33 23" fill="none" xmlns="http://www.w3.org/2000/svg">
<path fill-rule="evenodd" clip-rule="evenodd" d="M6.87402 19H9.23766V11.2H6.87402V19ZM19.874 11.85C19.874 11.135 19.3422 10.55 18.6922 10.55H14.9636L15.5249 7.5795L15.5427 7.3715C15.5427 7.105 15.4422 6.858 15.2827 6.6825L14.6563 6L10.7681 10.2835C10.5495 10.5175 10.4195 10.8425 10.4195 11.2V17.7C10.4195 18.415 10.9513 19 11.6013 19H16.9195C17.4099 19 17.8295 18.675 18.0068 18.207L19.7913 13.6245C19.8445 13.475 19.874 13.319 19.874 13.15V11.9085L19.8681 11.902L19.874 11.85Z" fill="#9B9B9B"/>
</svg>
