<svg width="24" height="24" viewBox="0 0 24 24" fill="none" xmlns="http://www.w3.org/2000/svg">
<path fill-rule="evenodd" clip-rule="evenodd" d="M3.05171 7.14683L3.28613 12.3039C3.36446 14.0272 3.40363 14.8889 3.66201 15.6722C3.89088 16.366 4.24454 17.0121 4.70559 17.5789C5.22607 18.2187 5.93073 18.7161 7.34006 19.7109L7.34007 19.7109L11.0769 22.3487C11.4092 22.5832 11.5753 22.7005 11.7562 22.7459C11.916 22.786 12.0832 22.786 12.243 22.7459C12.4239 22.7005 12.59 22.5832 12.9223 22.3487L16.6591 19.7109C18.0684 18.7161 18.7731 18.2187 19.2936 17.5789C19.7546 17.0121 20.1083 16.366 20.3372 15.6722C20.5955 14.8889 20.6347 14.0272 20.713 12.3039L20.9475 7.14683V7.14681C20.9652 6.75584 20.9741 6.56035 20.9192 6.30635C20.8803 6.12651 20.7588 5.82701 20.6615 5.67088C20.5239 5.45037 20.4222 5.35464 20.2186 5.16318C18.9718 3.99048 16.2322 2 11.9996 2C7.76697 2 5.02733 3.99048 3.78055 5.16318C3.577 5.35464 3.47522 5.45037 3.33772 5.67088C3.24036 5.82701 3.11889 6.12651 3.07999 6.30635C3.02506 6.56035 3.03394 6.75585 3.05171 7.14683ZM16.6361 10.1364C16.9875 9.78492 16.9875 9.21508 16.6361 8.8636C16.2846 8.51213 15.7147 8.51213 15.3633 8.8636L10.9997 13.2272L8.63605 10.8636C8.28458 10.5121 7.71473 10.5121 7.36326 10.8636C7.01179 11.2151 7.01179 11.7849 7.36326 12.1364L10.3633 15.1364C10.7147 15.4879 11.2846 15.4879 11.6361 15.1364L16.6361 10.1364Z" fill="#00C48C"/>
</svg>
