<svg width="18" height="18" viewBox="0 0 18 18" fill="none" xmlns="http://www.w3.org/2000/svg">
<path d="M14.4944 4.33329C15 5.08996 15 6.14331 15 8.25C15 10.3567 15 11.41 14.4944 12.1667C14.2755 12.4943 13.9943 12.7755 13.6667 12.9944C13.0057 13.4361 12.1183 13.4919 10.5 13.499V13.5L9.67082 15.1584C9.39443 15.7111 8.60557 15.7111 8.32918 15.1584L7.5 13.5V13.499C5.88172 13.4919 4.9943 13.4361 4.33329 12.9944C4.00572 12.7755 3.72447 12.4943 3.50559 12.1667C3 11.41 3 10.3567 3 8.25C3 6.14331 3 5.08996 3.50559 4.33329C3.72447 4.00572 4.00572 3.72447 4.33329 3.50559C5.08996 3 6.14331 3 8.25 3H9.75C11.8567 3 12.91 3 13.6667 3.50559C13.9943 3.72447 14.2755 4.00572 14.4944 4.33329Z" stroke="#A7CDCC" stroke-width="1.2" stroke-linecap="round" stroke-linejoin="round"/>
<path d="M6.75 6.75L11.25 6.75" stroke="#A7CDCC" stroke-width="1.2" stroke-linecap="round" stroke-linejoin="round"/>
<path d="M6.75 9.75H9" stroke="#A7CDCC" stroke-width="1.2" stroke-linecap="round" stroke-linejoin="round"/>
</svg>
