<svg width="18" height="18" viewBox="0 0 18 18" fill="none" xmlns="http://www.w3.org/2000/svg">
<path d="M1.96721 8.12351L2.48086 8.4336L2.48086 8.4336L1.96721 8.12351ZM16.0327 8.12351L16.5463 7.81342V7.81341L16.0327 8.12351ZM16.3584 8.98183L15.7589 8.95842V8.95842L16.3584 8.98183ZM15.953 9.83127L16.441 10.1805L15.953 9.83127ZM2.04683 9.83127L1.55892 10.1805H1.55892L2.04683 9.83127ZM1.64145 8.98183L2.24099 8.95842L1.64145 8.98183ZM8.99993 3.15C4.7827 3.15 2.38376 6.27256 1.45355 7.81342L2.48086 8.4336C3.35439 6.98663 5.44082 4.35 8.99993 4.35V3.15ZM16.5463 7.81341C15.6161 6.27256 13.2172 3.15 8.99993 3.15V4.35C12.559 4.35 14.6455 6.98663 15.519 8.4336L16.5463 7.81341ZM16.958 9.00524C16.9778 8.4973 16.7543 8.15793 16.5463 7.81342L15.519 8.4336C15.6394 8.63299 15.6969 8.73101 15.731 8.81226C15.7547 8.86866 15.761 8.90314 15.7589 8.95842L16.958 9.00524ZM16.441 10.1805C16.6815 9.8444 16.9381 9.51482 16.958 9.00524L15.7589 8.95842C15.7568 9.01048 15.7482 9.04529 15.7173 9.10466C15.6743 9.18751 15.6051 9.28643 15.4651 9.48207L16.441 10.1805ZM8.99993 14.85C10.8626 14.85 12.4627 14.0373 13.7096 13.0697C14.9574 12.1013 15.8928 10.9464 16.441 10.1805L15.4651 9.48207C14.9539 10.1963 14.0961 11.2508 12.9739 12.1217C11.8507 12.9934 10.5039 13.65 8.99993 13.65V14.85ZM1.55892 10.1805C2.10707 10.9464 3.04246 12.1013 4.29028 13.0697C5.53712 14.0373 7.13727 14.85 8.99993 14.85V13.65C7.49593 13.65 6.1492 12.9934 5.026 12.1217C3.90376 11.2508 3.04594 10.1963 2.53474 9.48207L1.55892 10.1805ZM1.04191 9.00524C1.06181 9.51482 1.31839 9.8444 1.55892 10.1805L2.53474 9.48207C2.39473 9.28643 2.32557 9.18751 2.28253 9.10466C2.25168 9.04529 2.24303 9.01048 2.24099 8.95842L1.04191 9.00524ZM1.45355 7.81342C1.24557 8.15793 1.02208 8.49729 1.04191 9.00524L2.24099 8.95842C2.23884 8.90314 2.24521 8.86866 2.26887 8.81226C2.30296 8.73101 2.36049 8.63299 2.48086 8.4336L1.45355 7.81342ZM10.6499 9C10.6499 9.91127 9.9112 10.65 8.99993 10.65V11.85C10.5739 11.85 11.8499 10.574 11.8499 9H10.6499ZM8.99993 7.35C9.9112 7.35 10.6499 8.08873 10.6499 9H11.8499C11.8499 7.42599 10.5739 6.15 8.99993 6.15V7.35ZM7.34993 9C7.34993 8.08873 8.08866 7.35 8.99993 7.35V6.15C7.42592 6.15 6.14993 7.42599 6.14993 9H7.34993ZM8.99993 10.65C8.08866 10.65 7.34993 9.91127 7.34993 9H6.14993C6.14993 10.574 7.42592 11.85 8.99993 11.85V10.65Z" fill="#014B56"/>
<path d="M9 3.75C5.11183 3.75 2.86914 6.6296 1.96727 8.12351C1.74231 8.49615 1.62983 8.68247 1.64152 8.98183C1.65321 9.28119 1.78444 9.46455 2.0469 9.83127C3.10625 11.3114 5.63333 14.25 9 14.25C12.3667 14.25 14.8938 11.3114 15.9531 9.83127C16.2156 9.46455 16.3468 9.28119 16.3585 8.98183C16.3702 8.68247 16.2577 8.49615 16.0327 8.12351C15.1309 6.6296 12.8882 3.75 9 3.75Z" stroke="#014B56" stroke-width="1.2"/>
<circle cx="9" cy="9" r="2.25" stroke="#014B56" stroke-width="1.2"/>
</svg>
