<svg width="40" height="40" viewBox="0 0 40 40" fill="none" xmlns="http://www.w3.org/2000/svg">
<rect x="0.5" y="0.5" width="39" height="39" rx="19.5" fill="white"/>
<g clip-path="url(#clip0_145_1224)">
<path d="M30.988 19.7151C30.988 18.7728 30.9132 18.0852 30.7512 17.3721H20.2188V21.6251H26.4011C26.2765 22.6821 25.6034 24.2738 24.1076 25.3434L24.0867 25.4858L27.4168 28.1214L27.6475 28.1449C29.7665 26.1457 30.988 23.2042 30.988 19.7151Z" fill="#4285F4"/>
<path d="M20.2187 30.9209C23.2475 30.9209 25.7902 29.9021 27.6475 28.1449L24.1076 25.3434C23.1603 26.0183 21.8889 26.4895 20.2187 26.4895C17.2522 26.4895 14.7344 24.4903 13.8369 21.7271L13.7053 21.7385L10.2425 24.4763L10.1973 24.6049C12.042 28.3486 15.8312 30.9209 20.2187 30.9209Z" fill="#34A853"/>
<path d="M13.8372 21.7272C13.6004 21.0141 13.4634 20.25 13.4634 19.4605C13.4634 18.671 13.6004 17.907 13.8248 17.1939L13.8185 17.042L10.3124 14.2603L10.1977 14.316C9.43736 15.8696 9.0011 17.6141 9.0011 19.4605C9.0011 21.3069 9.43736 23.0514 10.1977 24.605L13.8372 21.7272Z" fill="#FBBC05"/>
<path d="M20.2187 12.4314C22.3251 12.4314 23.7461 13.3609 24.5563 14.1378L27.7222 10.9797C25.7778 9.13332 23.2475 8 20.2187 8C15.8312 8 12.042 10.5722 10.1973 14.316L13.8244 17.1939C14.7344 14.4306 17.2522 12.4314 20.2187 12.4314Z" fill="#EB4335"/>
</g>
<rect x="0.5" y="0.5" width="39" height="39" rx="19.5" stroke="url(#paint0_linear_145_1224)"/>
<defs>
<linearGradient id="paint0_linear_145_1224" x1="0" y1="0" x2="42.3346" y2="2.64591" gradientUnits="userSpaceOnUse">
<stop stop-color="#F4B309"/>
<stop offset="1" stop-color="#FFE600"/>
</linearGradient>
<clipPath id="clip0_145_1224">
<rect width="22" height="23" fill="white" transform="translate(9 8)"/>
</clipPath>
</defs>
</svg>
