<svg width="22" height="22" viewBox="0 0 22 22" fill="none" xmlns="http://www.w3.org/2000/svg">
<path d="M20.167 5.4987V7.71703C20.167 9.16536 19.2503 10.082 17.802 10.082H14.667V3.67453C14.667 2.65703 15.5012 1.83203 16.5187 1.83203C17.5178 1.8412 18.4345 2.24453 19.0945 2.90453C19.7545 3.5737 20.167 4.49036 20.167 5.4987Z" stroke="#292D32" stroke-width="1.5" stroke-miterlimit="10" stroke-linecap="round" stroke-linejoin="round"/>
<path d="M1.83301 6.41536V19.2487C1.83301 20.0095 2.69467 20.4404 3.29967 19.982L4.86717 18.8087C5.23384 18.5337 5.74717 18.5704 6.07717 18.9004L7.59884 20.4312C7.95634 20.7887 8.54301 20.7887 8.90051 20.4312L10.4405 18.8912C10.7613 18.5704 11.2747 18.5337 11.6322 18.8087L13.1997 19.982C13.8047 20.4312 14.6663 20.0004 14.6663 19.2487V3.66536C14.6663 2.65703 15.4913 1.83203 16.4997 1.83203H6.41634H5.49967C2.74967 1.83203 1.83301 3.47286 1.83301 5.4987V6.41536Z" stroke="#292D32" stroke-width="1.5" stroke-miterlimit="10" stroke-linecap="round" stroke-linejoin="round"/>
<path d="M8.25 11.9258H11" stroke="#292D32" stroke-width="1.5" stroke-linecap="round" stroke-linejoin="round"/>
<path d="M8.25 8.25781H11" stroke="#292D32" stroke-width="1.5" stroke-linecap="round" stroke-linejoin="round"/>
<path d="M5.49609 11.918H5.50433" stroke="#292D32" stroke-width="2" stroke-linecap="round" stroke-linejoin="round"/>
<path d="M5.49609 8.25H5.50433" stroke="#292D32" stroke-width="2" stroke-linecap="round" stroke-linejoin="round"/>
</svg>
