<svg width="28" height="28" viewBox="0 0 28 28" fill="none" xmlns="http://www.w3.org/2000/svg">
<path d="M14.187 12.6804C14.0703 12.6687 13.9303 12.6687 13.802 12.6804C11.0253 12.587 8.82031 10.312 8.82031 7.51203C8.82031 4.6537 11.1303 2.33203 14.0003 2.33203C16.8586 2.33203 19.1803 4.6537 19.1803 7.51203C19.1686 10.312 16.9636 12.587 14.187 12.6804Z" stroke="#292D32" stroke-width="1.5" stroke-linecap="round" stroke-linejoin="round"/>
<path d="M8.35285 16.988C5.52952 18.878 5.52952 21.958 8.35285 23.8363C11.5612 25.983 16.8229 25.983 20.0312 23.8363C22.8545 21.9463 22.8545 18.8663 20.0312 16.988C16.8345 14.853 11.5729 14.853 8.35285 16.988Z" stroke="#292D32" stroke-width="1.5" stroke-linecap="round" stroke-linejoin="round"/>
</svg>
