<svg width="25" height="16" viewBox="0 0 25 16" fill="none" xmlns="http://www.w3.org/2000/svg">
<path d="M21.5823 0.648438H2.50956C1.1263 0.648438 0 1.70676 0 3.00659V13.3823C0 14.6821 1.1263 15.7404 2.50956 15.7404H21.5823C22.9656 15.7404 24.0919 14.6821 24.0919 13.3823V3.00659C24.0919 1.70676 22.9656 0.648438 21.5823 0.648438ZM23.0881 13.3823C23.0881 14.1624 22.4125 14.7972 21.5823 14.7972H2.50956C1.67937 14.7972 1.00381 14.1624 1.00381 13.3823V3.00659C1.00381 2.22651 1.67937 1.59172 2.50956 1.59172H21.5823C22.4125 1.59172 23.088 2.22651 23.088 3.00659V13.3823H23.0881Z" fill="#34A853"/>
<path d="M23.59 3.46875H0.50193C0.224873 3.46875 0 3.68005 0 3.94039V6.77013C0 7.03047 0.224873 7.24177 0.50193 7.24177H23.59C23.8671 7.24177 24.0919 7.03047 24.0919 6.77013V3.94039C24.0919 3.68005 23.867 3.46875 23.59 3.46875ZM23.0881 6.2985H1.00381V4.41198H23.088V6.2985H23.0881Z" fill="#34A853"/>
<path d="M19.574 9.12109H18.5702C17.74 9.12109 17.0645 9.75589 17.0645 10.536V11.4792C17.0645 12.2593 17.74 12.8941 18.5702 12.8941H19.574C20.4042 12.8941 21.0798 12.2593 21.0798 11.4792V10.536C21.0798 9.75593 20.4042 9.12109 19.574 9.12109ZM20.0759 11.4792C20.0759 11.7396 19.8511 11.9509 19.574 11.9509H18.5702C18.2931 11.9509 18.0683 11.7396 18.0683 11.4792V10.536C18.0683 10.2757 18.2931 10.0644 18.5702 10.0644H19.574C19.8511 10.0644 20.0759 10.2757 20.0759 10.536V11.4792Z" fill="#34A853"/>
<path d="M6.21031 12.3306H4.26031L3.84031 13.2656H3.45531L5.05531 9.76562H5.42031L7.02031 13.2656H6.63031L6.21031 12.3306ZM6.07531 12.0306L5.23531 10.1506L4.39531 12.0306H6.07531ZM8.10352 10.0856H6.87352V9.76562H9.70352V10.0856H8.47352V13.2656H8.10352V10.0856ZM13.9296 9.76562V13.2656H13.5746V10.4656L12.1996 12.8206H12.0246L10.6496 10.4806V13.2656H10.2946V9.76562H10.5996L12.1196 12.3606L13.6246 9.76562H13.9296Z" fill="#34A853"/>
</svg>
