<svg width="32" height="32" viewBox="0 0 32 32" fill="none" xmlns="http://www.w3.org/2000/svg">
<circle cx="16" cy="16" r="16" fill="#EDF1FF"/>
<path d="M8.32301 23.7707C8.25039 23.698 8.14961 23.6562 8.04687 23.6562C7.94414 23.6562 7.84336 23.698 7.7707 23.7707C7.69805 23.8434 7.65625 23.9441 7.65625 24.0469C7.65625 24.1496 7.69801 24.2504 7.7707 24.323C7.84336 24.3957 7.94414 24.4375 8.04687 24.4375C8.14961 24.4375 8.25039 24.3957 8.32301 24.323C8.39566 24.2504 8.4375 24.1496 8.4375 24.0469C8.4375 23.9441 8.3957 23.8434 8.32301 23.7707Z" fill="#5C73BC"/>
<path d="M23.3406 13.1457C23.268 13.073 23.1676 13.0312 23.0645 13.0312C22.9617 13.0312 22.8609 13.073 22.7883 13.1457C22.7157 13.2184 22.6738 13.3191 22.6738 13.4219C22.6738 13.5246 22.7156 13.6254 22.7883 13.698C22.8609 13.7707 22.9617 13.8125 23.0645 13.8125C23.1676 13.8125 23.268 13.7707 23.3406 13.698C23.4136 13.6254 23.4554 13.5246 23.4554 13.4219C23.4554 13.3191 23.4136 13.2184 23.3406 13.1457Z" fill="#5C73BC"/>
<path d="M24.885 6.11441C24.8118 6.04117 24.7124 6 24.6088 6L14.9996 6.00051C14.7839 6.00051 14.609 6.17543 14.609 6.39113V7.5082L10.9064 8.50035C10.698 8.55621 10.5743 8.77039 10.6301 8.97874L12.5492 16.1405L10.8891 17.8006C10.6778 17.4921 10.323 17.2892 9.92171 17.2892H6.17183C5.52566 17.2892 5 17.8149 5 18.4611V24.8281C5 25.4743 5.52566 26 6.17183 26H9.92175C10.4707 26 10.9325 25.6204 11.0591 25.1101L11.5235 25.5152C11.8821 25.8278 12.3414 26 12.8172 26H24.6088C24.8245 26 24.9995 25.8251 24.9995 25.6094V6.39062C24.9994 6.28703 24.9583 6.18766 24.885 6.11441ZM10.3123 24.8281C10.3123 25.0435 10.1371 25.2188 9.92167 25.2188H6.17179C5.9564 25.2188 5.78117 25.0435 5.78117 24.8281V18.4611C5.78117 18.2457 5.9564 18.0705 6.17179 18.0705H7.65613V22.5703C7.65613 22.786 7.83105 22.9609 8.04675 22.9609C8.26245 22.9609 8.43738 22.786 8.43738 22.5703V18.0705H9.92171C10.1371 18.0705 10.3123 18.2457 10.3123 18.4611V24.8281H10.3123ZM11.4858 9.15386L14.609 8.31699V9.76445L14.3472 9.8346C14.2471 9.86144 14.1619 9.92687 14.1101 10.0166C14.0583 10.1063 14.0442 10.2129 14.071 10.313C14.2212 10.8732 13.8875 11.451 13.3273 11.6012C13.2271 11.628 13.1417 11.6936 13.0899 11.7835C13.0382 11.8734 13.0242 11.9802 13.0513 12.0803L14.5739 17.7185H13.7899L13.3859 16.1379C13.3731 16.0876 13.3506 16.0412 13.3205 16.0009L11.4858 9.15386ZM14.609 11.5558V14.8519L13.8966 12.2139C14.1942 12.0602 14.4378 11.8303 14.609 11.5558ZM20.2209 25.2187H12.8171C12.5302 25.2187 12.2531 25.1149 12.0369 24.9263L11.0935 24.1036V18.701L12.7989 16.9956L13.1082 18.2058C13.1524 18.3787 13.3082 18.4997 13.4867 18.4997L21.1665 18.5001C21.4681 18.5001 21.7134 18.7454 21.7134 19.047C21.7134 19.3486 21.4681 19.5939 21.1665 19.5939H17.2313C17.0156 19.5939 16.8407 19.7688 16.8407 19.9845C16.8407 20.2002 17.0156 20.3751 17.2313 20.3751H22.3891C22.6907 20.3751 22.936 20.6204 22.936 20.922C22.936 21.2236 22.6907 21.4689 22.3891 21.4689H17.2313C17.0156 21.4689 16.8407 21.6438 16.8407 21.8595C16.8407 22.0752 17.0156 22.2501 17.2313 22.2501H21.5533C21.8549 22.2501 22.1002 22.4954 22.1002 22.797C22.1002 23.0986 21.8549 23.3439 21.5533 23.3439H17.2313C17.0156 23.3439 16.8407 23.5188 16.8407 23.7345C16.8407 23.9502 17.0156 24.1251 17.2313 24.1251H20.2209C20.5225 24.1251 20.7678 24.3704 20.7678 24.672C20.7677 24.9734 20.5224 25.2187 20.2209 25.2187ZM24.2182 25.2187H24.2182H21.4307C21.5065 25.0518 21.549 24.8668 21.549 24.6718C21.549 24.4769 21.5065 24.2919 21.4307 24.125H21.5533C22.2856 24.125 22.8814 23.5292 22.8814 22.7969C22.8814 22.5833 22.8304 22.3815 22.7404 22.2025C23.3028 22.048 23.7172 21.5326 23.7172 20.9219C23.7172 20.6257 23.6196 20.3518 23.455 20.1307V15.1799C23.455 14.9642 23.2801 14.7893 23.0644 14.7893C22.8487 14.7893 22.6738 14.9642 22.6738 15.1799V19.6249C22.582 19.6048 22.4868 19.5939 22.3891 19.5939H22.3763C22.452 19.427 22.4945 19.2419 22.4945 19.047C22.4945 18.3147 21.8988 17.7189 21.1665 17.7189H20.5385C21.2053 17.433 21.6736 16.7703 21.6736 16C21.6736 14.9692 20.835 14.1305 19.8041 14.1305C18.7734 14.1305 17.9347 14.9692 17.9347 16C17.9347 16.7703 18.4031 17.433 19.0698 17.7189H16.9345V10.2915C17.6323 10.1394 18.1829 9.58886 18.335 8.89101H21.2733C21.4253 9.58886 21.9759 10.1394 22.6738 10.2915V11.506C22.6738 11.7217 22.8487 11.8966 23.0644 11.8966C23.2801 11.8966 23.455 11.7217 23.455 11.506V9.94277C23.455 9.72706 23.2801 9.55214 23.0644 9.55214C22.4844 9.55214 22.0127 9.08031 22.0127 8.50039C22.0127 8.28468 21.8377 8.10976 21.622 8.10976H17.9863C17.7706 8.10976 17.5956 8.28468 17.5956 8.50039C17.5956 9.08035 17.1238 9.55214 16.5439 9.55214C16.3282 9.55214 16.1533 9.72706 16.1533 9.94277V17.7189H15.3903V6.78168L24.2182 6.78125V25.2187ZM19.8042 17.0882C19.2042 17.0882 18.7161 16.6 18.7161 16C18.7161 15.4 19.2042 14.9118 19.8042 14.9118C20.4042 14.9118 20.8924 15.4 20.8924 16C20.8924 16.6 20.4043 17.0882 19.8042 17.0882Z" fill="#5C73BC"/>
</svg>
