<svg width="14" height="14" viewBox="0 0 14 14" fill="none" xmlns="http://www.w3.org/2000/svg">
<path fill-rule="evenodd" clip-rule="evenodd" d="M9.29687 1.75H1.64062C1.218 1.75 0.875 2.093 0.875 2.51562V7.875C0.875 8.29762 1.218 8.64062 1.64062 8.64062H3.17187V10.9375L5.46875 8.64062H9.29687C9.7195 8.64062 10.0625 8.29762 10.0625 7.875V2.51562C10.0625 2.093 9.7195 1.75 9.29687 1.75ZM11.594 4.81221H12.3597C12.7823 4.81221 13.1253 5.15521 13.1253 5.57784V10.9372C13.1253 11.3598 12.7823 11.7028 12.3597 11.7028H10.8284V13.9997L8.53154 11.7028H4.70341L6.10298 10.1716H10.8284C11.251 10.1716 11.594 9.82858 11.594 9.40596V4.81221Z" fill="#F87E0A"/>
</svg>
