<svg width="55" height="21" viewBox="0 0 55 21" fill="none" xmlns="http://www.w3.org/2000/svg">
<path d="M1.1009 0.386215C0.780691 0.55542 0.486745 0.856933 0.294506 1.18322L0 1.71456V10.4194C0 18.6293 0.0128532 19.1485 0.243093 19.6193C0.524745 20.1865 0.998078 20.585 1.6508 20.7542C1.97101 20.8506 10.1881 20.8749 27.6472 20.8506C51.8391 20.8143 53.2088 20.8027 53.6056 20.5971C53.823 20.4764 54.1689 20.1622 54.3735 19.8849L54.7194 19.3778L54.7579 10.7694C54.7836 4.9864 54.7451 2.00395 54.6557 1.67819C54.5791 1.42464 54.374 1.03826 54.1946 0.833214C53.4905 0.0483304 55.6537 0.10895 27.3661 0.10895H1.59994L1.1009 0.386215ZM31.2573 0.73675C31.1164 0.893832 30.9371 1.1711 30.8605 1.35243C30.7582 1.58172 30.7197 4.56417 30.7197 10.5164V19.342L31.0399 19.8733L31.373 20.3926H16.5119C0.192238 20.3926 1.12661 20.441 0.704131 19.6683C0.537599 19.3663 0.511892 18.1349 0.511892 10.4078C0.511892 0.555948 0.460479 1.208 1.33114 0.700906C1.71506 0.483732 2.18895 0.471608 16.627 0.471608H31.5261L31.2573 0.73675ZM53.4653 0.712503C54.3103 1.19535 54.2717 0.748874 54.2717 10.5644V19.4506L53.7722 19.9213L53.2731 20.392H42.7262C32.2045 20.392 32.1665 20.392 31.8206 20.1385C31.0784 19.5829 31.1036 19.9693 31.1036 10.4674C31.1036 2.23325 31.1164 1.71403 31.3338 1.31553C31.8329 0.422059 31.2444 0.470553 42.7514 0.470553C52.7484 0.471081 53.0686 0.483206 53.4653 0.712503Z" fill="#158EE6"/>
<path d="M7.16839 6.7616C4.7872 7.14798 3.32808 8.94704 3.48176 11.3133C3.59688 13.0275 4.49269 14.2472 6.02893 14.7786C6.83533 15.0442 8.79348 15.0927 9.7027 14.8513L10.2403 14.7064V13.6316V12.5573L9.71556 12.7265C8.88345 13.0043 7.68028 12.9679 7.16839 12.63C6.41341 12.1472 6.20831 11.7729 6.20831 10.8552C6.20831 9.96175 6.3877 9.61174 7.07842 9.11678C7.53946 8.79102 8.93431 8.70615 9.70215 8.95969L10.2397 9.14102V8.01826V6.89549L9.57417 6.81115C8.21788 6.65302 7.85911 6.65302 7.16839 6.7616Z" fill="#158EE6"/>
<path d="M14.682 6.74941C13.7605 6.90649 13.005 7.305 12.3014 8.02926C11.4564 8.89848 11.2005 9.62275 11.2133 11.0354C11.2133 11.8683 11.2776 12.2547 11.495 12.6895C12.1734 14.1143 13.6454 14.9957 15.3605 15.0078C16.6279 15.0078 17.4851 14.73 18.3044 14.03C19.3667 13.1365 19.7507 12.2188 19.7378 10.6617C19.7121 9.18893 19.0851 8.02979 17.9328 7.34137C17.037 6.79791 15.7952 6.56861 14.682 6.74941ZM16.3714 9.11618C16.8196 9.46619 17.0241 10.0339 17.0241 10.9511C17.0241 12.1587 16.4222 12.9072 15.437 12.9072C14.4261 12.9072 13.9522 12.2673 13.9522 10.8668C13.9522 9.88894 14.2467 9.17628 14.7457 8.9591C15.2833 8.70556 15.9489 8.77777 16.3714 9.11618Z" fill="#158EE6"/>
<path d="M20.9922 10.9233V14.9922L23.3348 14.9321C25.3444 14.8715 25.7669 14.8356 26.4196 14.5942C27.3797 14.2442 28.1861 13.5558 28.6342 12.6744C28.9545 12.0709 28.9925 11.8774 28.9925 10.7304C28.9925 9.66774 28.941 9.36623 28.698 8.84701C28.3269 8.08638 27.7764 7.56716 26.9443 7.20503C26.3553 6.95149 26.0994 6.92724 23.6545 6.8914L20.9922 6.85503V10.9233ZM25.3181 8.96772C26.2525 9.42632 26.6107 10.936 26.0351 11.9981C25.7149 12.5896 24.8962 13.0244 24.1021 13.0244H23.5516V10.839V8.64144L24.2429 8.71365C24.6274 8.75002 25.1007 8.85914 25.3181 8.96772Z" fill="#158EE6"/>
<path d="M32.3317 5.96388C32.2931 6.06034 32.2931 6.22955 32.3317 6.32601C32.3959 6.4831 32.9464 6.50734 36.1463 6.50734C38.2072 6.50734 39.9223 6.54371 39.9609 6.57956C39.9994 6.61593 39.9737 6.79673 39.8966 7.00231L39.7558 7.35232H36.8632C33.8042 7.35232 33.4583 7.41294 33.5611 7.9079C33.5996 8.12508 33.7533 8.1372 36.5307 8.17357C39.2444 8.19782 39.4361 8.22207 39.3596 8.41499C39.3081 8.52358 39.2316 8.71703 39.2059 8.82562C39.1422 9.01855 38.9371 9.04279 37.2477 9.04279C35.2639 9.04279 34.9951 9.11501 35.0973 9.6105C35.1359 9.80343 35.3404 9.8398 36.9532 9.8883L38.7577 9.94892L37.8747 12.2429C37.388 13.4985 36.9912 14.6456 36.9912 14.7905C36.9912 14.9355 37.0806 15.0926 37.1957 15.1284C37.5545 15.2612 43.9029 15.2127 44.1717 15.0799C44.3511 14.9834 44.4148 14.8264 44.4148 14.4642C44.4148 13.8122 44.6707 13.2808 45.2212 12.8223C46.7831 11.5303 49.0866 12.3637 49.3554 14.3071C49.4068 14.6329 49.4962 14.9713 49.5728 15.0435C49.7393 15.2486 51.4801 15.2486 51.6846 15.0557C51.902 14.8506 51.902 11.3853 51.6846 11.2646C51.5952 11.2161 50.8397 10.9989 50.0081 10.7939L48.4976 10.4196L46.9999 8.1256L45.5023 5.8437L38.9617 5.80733C33.2152 5.78308 32.3959 5.80733 32.3317 5.96388ZM46.45 8.86199L47.9349 11.156L49.4454 11.5182L50.9431 11.8803V13.1116V14.3551H50.5592C50.2518 14.3551 50.1752 14.3071 50.1752 14.0773C50.1624 13.6667 49.6885 12.7732 49.2409 12.3268C47.4872 10.6004 44.3639 11.3247 43.6983 13.6187L43.481 14.3551H40.7544H38.0279L38.476 13.1717C38.732 12.5318 39.3338 10.9383 39.8329 9.64635C40.3319 8.35437 40.8058 7.1109 40.9081 6.89372L41.0746 6.49522L43.0199 6.53159L44.9529 6.56796L46.45 8.86199Z" fill="#158EE6"/>
<path d="M42.7893 7.31834L41.6119 7.36684L41.3559 8.17597C40.844 9.83007 40.6646 10.5786 40.7417 10.7715C40.8189 10.9528 41.1128 10.9766 43.3018 10.9766C45.3756 10.9766 45.8232 10.9402 45.9512 10.7952C46.092 10.6382 45.9898 10.3482 45.3879 9.06891C44.6838 7.60826 44.4027 7.20976 44.1082 7.25773C44.031 7.26985 43.442 7.30622 42.7893 7.31834ZM44.4278 9.129L44.9146 10.1311H43.3018H41.7018L41.7789 9.79318C41.8298 9.61185 41.9455 9.18962 42.0606 8.83909C42.2271 8.24766 42.2657 8.21129 42.7262 8.16279C43.8902 8.04261 43.9031 8.04261 44.4278 9.129Z" fill="#158EE6"/>
<path d="M46.1306 13.2729C44.7481 13.9249 44.7095 15.7841 46.0921 16.4361C46.9242 16.8468 47.782 16.6533 48.4347 15.929C48.7035 15.627 48.7678 15.4219 48.7678 14.927C48.7678 14.1178 48.4218 13.5749 47.7054 13.2729C47.027 12.9708 46.7839 12.9708 46.1306 13.2729ZM47.6283 14.2264C48.0251 14.6128 48.0765 14.83 47.8457 15.2406C47.5126 15.8442 46.8599 15.977 46.2837 15.5548C45.7461 15.1563 45.8741 14.2386 46.5011 13.9971C46.9884 13.8158 47.2444 13.8643 47.6283 14.2264Z" fill="#158EE6"/>
</svg>
