<svg width="30" height="18" viewBox="0 0 30 18" fill="none" xmlns="http://www.w3.org/2000/svg">
<path d="M18.4946 9.28608C18.4946 13.9756 14.4671 17.7753 9.49729 17.7753C4.52745 17.7753 0.5 13.9747 0.5 9.28608C0.5 4.59745 4.52844 0.796875 9.49729 0.796875C14.4661 0.796875 18.4946 4.59745 18.4946 9.28608Z" fill="#E2574C"/>
<path d="M20.3017 0.796875C18.2839 0.796875 16.4263 1.43103 14.9251 2.48967L14.9323 2.49051C15.2276 2.75959 15.5533 2.94897 15.8044 3.25874L13.9324 3.28677C13.639 3.56609 13.3717 3.86999 13.1197 4.18582H16.4209C16.672 4.47017 16.9041 4.71728 17.1148 5.03133H12.5212C12.3529 5.3047 12.1973 5.5857 12.0613 5.87768H17.6377C17.7835 6.16883 17.914 6.38875 18.0248 6.69694H11.7311C11.6312 6.98986 11.5457 7.28948 11.4808 7.59506H18.2884C18.3551 7.88881 18.4063 8.16041 18.4414 8.43722H11.3458C11.3161 8.71654 11.3008 9.00006 11.3008 9.28618H18.4927C18.4927 9.58673 18.4702 9.86512 18.4378 10.1351H11.3458C11.3764 10.4229 11.4214 10.7056 11.4808 10.9841H18.2776C18.2074 11.2591 18.1264 11.5359 18.0247 11.8228H11.7103C11.8057 12.1131 11.9219 12.395 12.0487 12.67H17.6377C17.483 12.979 17.3075 13.226 17.114 13.5155H12.5051C12.687 13.8126 12.8876 14.0961 13.1054 14.3678L16.4209 14.4145C16.1383 14.7345 15.7757 14.9272 15.4453 15.2074C15.4633 15.221 14.917 15.2057 13.8415 15.1896C15.4777 16.7822 17.7646 17.7754 20.3016 17.7754C25.2723 17.7754 29.3016 13.9747 29.3016 9.28618C29.3016 4.59763 25.2732 0.796875 20.3017 0.796875Z" fill="#F4B459"/>
</svg>
