<svg width="52" height="16" viewBox="0 0 52 16" fill="none" xmlns="http://www.w3.org/2000/svg">
<path d="M21.0255 0.761719L18.4596 15.8235H22.561L25.1254 0.761719H21.0255ZM33.3969 6.89704C31.9636 6.22942 31.085 5.77883 31.085 5.09601C31.1025 4.47517 31.828 3.83913 33.4481 3.83913C34.7806 3.80756 35.76 4.10294 36.503 4.39683L36.8752 4.55352L37.4328 1.40223C36.6227 1.10685 35.3382 0.781388 33.7516 0.781388C29.7013 0.781388 26.8494 2.7677 26.8317 5.60858C26.7982 7.70498 28.8735 8.86831 30.4266 9.56618C32.0132 10.2821 32.5533 10.7462 32.5533 11.3822C32.5358 12.3588 31.2704 12.8094 30.0897 12.8094C28.4536 12.8094 27.5748 12.5773 26.2408 12.0332L25.7007 11.8011L25.1271 15.076C26.0906 15.48 27.8624 15.8355 29.7015 15.8537C34.0058 15.8537 36.8067 13.8975 36.8419 10.8698C36.8559 9.20898 35.7615 7.93689 33.3969 6.89704ZM47.9475 0.808331H44.7743C43.7965 0.808331 43.0535 1.07363 42.6301 2.02009L36.5378 15.8235H40.8422L42.0277 12.835H46.8433L47.4584 15.8355H51.2547L47.9475 0.808331ZM43.2214 9.81907C43.3044 9.82668 44.8735 4.94064 44.8735 4.94064L46.1229 9.81907C46.1229 9.81907 44.0315 9.81907 43.2214 9.81907ZM15.0324 0.761719L11.0141 10.9948L10.5764 8.97674C9.83335 6.64827 7.50393 4.11798 4.9043 2.86109L8.58392 15.8084H12.9235L19.372 0.763371H15.0324V0.761719Z" fill="#2373BC"/>
<path d="M9.22259 2.70516C8.90944 1.55671 7.91076 0.782154 6.55443 0.765625H0.190539L0.125 1.04431C5.08928 2.19871 9.25606 5.75083 10.6078 9.09205L9.22259 2.70516Z" fill="#EFA45E"/>
</svg>
