<svg width="35" height="24" viewBox="0 0 35 24" fill="none" xmlns="http://www.w3.org/2000/svg">
<rect x="0.5" y="0.5" width="34" height="23" rx="3.5" fill="white" stroke="#D9D9D9"/>
<path fill-rule="evenodd" clip-rule="evenodd" d="M9.90001 15.2402H8.34439C8.23794 15.2402 8.1474 15.3176 8.1308 15.4227L7.50163 19.4117C7.48913 19.4905 7.55009 19.5614 7.62993 19.5614H8.37259C8.47905 19.5614 8.56958 19.484 8.58618 19.3788L8.75588 18.3029C8.77225 18.1975 8.863 18.1202 8.96924 18.1202H9.46169C10.4864 18.1202 11.0778 17.6243 11.2323 16.6417C11.3019 16.2118 11.2353 15.874 11.0339 15.6374C10.8129 15.3777 10.4206 15.2402 9.90001 15.2402ZM10.0795 16.6972C9.99443 17.2554 9.56792 17.2554 9.15553 17.2554H8.92078L9.08547 16.2129C9.09525 16.1499 9.14984 16.1035 9.21353 16.1035H9.32112C9.60204 16.1035 9.86706 16.1035 10.004 16.2636C10.0856 16.3592 10.1106 16.5011 10.0795 16.6972ZM14.5501 16.6793H13.8052C13.7417 16.6793 13.6869 16.7257 13.6771 16.7888L13.6441 16.9971L13.592 16.9216C13.4308 16.6875 13.0712 16.6093 12.7122 16.6093C11.889 16.6093 11.1859 17.2328 11.049 18.1074C10.9778 18.5436 11.079 18.9608 11.3264 19.2517C11.5535 19.5192 11.8783 19.6307 12.2647 19.6307C12.928 19.6307 13.2959 19.2041 13.2959 19.2041L13.2626 19.4112C13.2501 19.4903 13.3111 19.5613 13.3904 19.5613H14.0615C14.1682 19.5613 14.2582 19.4839 14.2751 19.3787L14.6777 16.829C14.6904 16.7506 14.6297 16.6793 14.5501 16.6793ZM13.5117 18.1292C13.4398 18.5548 13.102 18.8405 12.6713 18.8405C12.455 18.8405 12.282 18.7711 12.1711 18.6396C12.061 18.5091 12.0191 18.3232 12.0541 18.1162C12.1213 17.6942 12.4647 17.3993 12.889 17.3993C13.1004 17.3993 13.2724 17.4695 13.3857 17.6021C13.4992 17.7361 13.5442 17.9231 13.5117 18.1292ZM17.769 16.6792H18.5176C18.6224 16.6792 18.6836 16.7968 18.624 16.8828L16.1342 20.4767C16.0939 20.5349 16.0275 20.5695 15.9565 20.5695H15.2089C15.1036 20.5695 15.0421 20.451 15.1031 20.3648L15.8783 19.2705L15.0538 16.8507C15.0253 16.7666 15.0874 16.6792 15.1769 16.6792H15.9124C16.008 16.6792 16.0923 16.7419 16.1199 16.8334L16.5575 18.2949L17.59 16.774C17.6304 16.7147 17.6976 16.6792 17.769 16.6792Z" fill="#253B80"/>
<path fill-rule="evenodd" clip-rule="evenodd" d="M25.8851 19.4119L26.5236 15.3499C26.5334 15.2869 26.588 15.2404 26.6515 15.2402H27.3702C27.4496 15.2402 27.5105 15.3114 27.498 15.3901L26.8684 19.379C26.852 19.4842 26.7615 19.5616 26.6548 19.5616H26.0129C25.9336 19.5616 25.8726 19.4907 25.8851 19.4119ZM20.9958 15.2404H19.4399C19.3337 15.2404 19.2431 15.3178 19.2265 15.4229L18.5973 19.4119C18.5848 19.4907 18.6458 19.5616 18.7252 19.5616H19.5236C19.5978 19.5616 19.6612 19.5075 19.6728 19.4338L19.8513 18.3031C19.8678 18.1977 19.9585 18.1205 20.0647 18.1205H20.5569C21.5819 18.1205 22.1731 17.6246 22.3278 16.6419C22.3976 16.212 22.3305 15.8742 22.1292 15.6376C21.9083 15.3779 21.5164 15.2404 20.9958 15.2404ZM21.1752 16.6974C21.0904 17.2556 20.6639 17.2556 20.2512 17.2556H20.0167L20.1817 16.2131C20.1914 16.1501 20.2456 16.1037 20.3094 16.1037H20.417C20.6978 16.1037 20.963 16.1037 21.0999 16.2638C21.1816 16.3594 21.2064 16.5013 21.1752 16.6974ZM25.6455 16.6795H24.901C24.837 16.6795 24.7827 16.7259 24.7731 16.789L24.7402 16.9973L24.6879 16.9218C24.5266 16.6877 24.1672 16.6095 23.8083 16.6095C22.985 16.6095 22.2822 17.233 22.1452 18.1076C22.0743 18.5438 22.175 18.961 22.4225 19.2519C22.65 19.5194 22.9744 19.6309 23.3608 19.6309C24.0241 19.6309 24.3919 19.2043 24.3919 19.2043L24.3587 19.4114C24.3462 19.4906 24.4071 19.5615 24.487 19.5615H25.1578C25.264 19.5615 25.3545 19.4841 25.3711 19.3789L25.774 16.8292C25.7863 16.7508 25.7254 16.6795 25.6455 16.6795ZM24.6071 18.1294C24.5357 18.555 24.1975 18.8407 23.7666 18.8407C23.5507 18.8407 23.3775 18.7713 23.2664 18.6398C23.1563 18.5093 23.1149 18.3234 23.1496 18.1165C23.217 17.6945 23.5601 17.3995 23.9843 17.3995C24.1959 17.3995 24.3678 17.4697 24.4811 17.6023C24.595 17.7363 24.6401 17.9233 24.6071 18.1294Z" fill="#179BD7"/>
<path d="M15.6566 13.8138L15.8479 12.5991L15.4219 12.5892H13.3877L14.8014 3.62534C14.8057 3.59828 14.82 3.57305 14.8409 3.55513C14.8617 3.53722 14.8884 3.52734 14.9162 3.52734H18.3462C19.485 3.52734 20.2708 3.7643 20.6811 4.232C20.8734 4.45141 20.9959 4.68068 21.0552 4.933C21.1173 5.19776 21.1184 5.51406 21.0577 5.89985L21.0533 5.92801V6.1752L21.2457 6.28418C21.4077 6.37011 21.5363 6.46848 21.6351 6.58111C21.7997 6.7687 21.9061 7.00712 21.9511 7.28978C21.9975 7.5805 21.9821 7.92643 21.9061 8.31807C21.8183 8.76859 21.6765 9.16096 21.4849 9.48202C21.3086 9.77785 21.084 10.0232 20.8175 10.2134C20.563 10.394 20.2606 10.5312 19.9187 10.619C19.5873 10.7052 19.2096 10.7488 18.7953 10.7488H18.5283C18.3375 10.7488 18.152 10.8175 18.0065 10.9408C17.8607 11.0665 17.764 11.2383 17.7344 11.4263L17.7143 11.5357L17.3764 13.6767L17.3611 13.7553C17.3571 13.7802 17.3501 13.7927 17.3399 13.8011C17.3308 13.8087 17.3176 13.8138 17.3048 13.8138H15.6566Z" fill="#253B80"/>
<path d="M21.4279 5.95508C21.4177 6.02053 21.406 6.08745 21.3928 6.15619C20.9404 8.47861 19.3929 9.28091 17.4164 9.28091H16.4101C16.1684 9.28091 15.9647 9.45642 15.927 9.69484L15.4118 12.9626L15.2659 13.8888C15.2413 14.0453 15.3621 14.1865 15.52 14.1865H17.3049C17.5163 14.1865 17.6958 14.0329 17.729 13.8245L17.7466 13.7337L18.0827 11.6011L18.1043 11.4841C18.1371 11.275 18.317 11.1214 18.5284 11.1214H18.7954C20.5246 11.1214 21.8784 10.4193 22.2741 8.38756C22.4394 7.53882 22.3538 6.83014 21.9164 6.33172C21.7841 6.18143 21.6199 6.05673 21.4279 5.95508Z" fill="#179BD7"/>
<path d="M20.9545 5.76783C20.8854 5.74771 20.814 5.72943 20.7409 5.71297C20.6674 5.69689 20.592 5.68263 20.5146 5.6702C20.2432 5.62631 19.9459 5.60547 19.6274 5.60547H16.939C16.8728 5.60547 16.8099 5.62046 16.7536 5.64752C16.6296 5.70712 16.5375 5.82451 16.5152 5.96822L15.9432 9.59062L15.9268 9.69629C15.9644 9.45787 16.1681 9.28234 16.4098 9.28234H17.4161C19.3927 9.28234 20.9402 8.47969 21.3926 6.15764C21.406 6.08889 21.4174 6.02197 21.4276 5.95652C21.3132 5.89582 21.1892 5.84389 21.0557 5.79964C21.0229 5.78867 20.9889 5.77807 20.9545 5.76783Z" fill="#222D65"/>
<path d="M16.5156 5.96769C16.5379 5.82397 16.6301 5.70659 16.754 5.64735C16.8107 5.62029 16.8733 5.6053 16.9394 5.6053H19.6279C19.9464 5.6053 20.2437 5.62614 20.5149 5.67002C20.5925 5.68246 20.6679 5.69672 20.7414 5.7128C20.8145 5.72927 20.8858 5.74755 20.9549 5.76766C20.9893 5.7779 21.0233 5.7885 21.0565 5.79911C21.19 5.84335 21.314 5.89565 21.4284 5.95598C21.5631 5.09774 21.4274 4.51339 20.9634 3.98425C20.4518 3.40173 19.5284 3.15234 18.3469 3.15234H14.9168C14.6755 3.15234 14.4697 3.32786 14.4323 3.56665L13.0037 12.6226C12.9755 12.8018 13.1137 12.9635 13.2943 12.9635H15.412L15.9437 9.59008L16.5156 5.96769Z" fill="#253B80"/>
</svg>
