<svg width="35" height="24" viewBox="0 0 35 24" fill="none" xmlns="http://www.w3.org/2000/svg">
<rect x="0.5" y="0.5" width="34" height="23" rx="3.5" fill="white" stroke="#D9D9D9"/>
<path fill-rule="evenodd" clip-rule="evenodd" d="M18.8055 8.14144L17.0275 8.523V7.08153L18.8055 6.70703V8.14144ZM11.5803 7.52669L9.852 7.89412L9.84491 13.554C9.84491 14.5998 10.6312 15.37 11.6795 15.37C12.2603 15.37 12.6853 15.264 12.9191 15.1368V13.7024C12.6924 13.7943 11.5733 14.1193 11.5733 13.0735V10.5651H12.9191V9.06002H11.5733L11.5803 7.52669ZM7.39418 10.4732C7.01876 10.4732 6.79209 10.5792 6.79209 10.8548C6.79209 11.1557 7.18219 11.288 7.66615 11.4522C8.45512 11.7199 9.49355 12.0723 9.49794 13.3774C9.49794 14.6422 8.48502 15.37 7.01168 15.37C6.40251 15.37 5.73667 15.2499 5.07792 14.9672V13.2855C5.67292 13.6106 6.42376 13.8508 7.01168 13.8508C7.40834 13.8508 7.69168 13.7448 7.69168 13.4198C7.69168 13.0865 7.26881 12.9341 6.75828 12.7502C5.98078 12.4701 5 12.1168 5 10.9396C5 9.6889 5.95625 8.9399 7.39418 8.9399C7.9821 8.9399 8.56293 9.03176 9.15085 9.26494V10.9255C8.61252 10.6358 7.93251 10.4732 7.39418 10.4732ZM27.9429 8.93991C29.6217 8.93991 30.5 10.3672 30.5 12.1761C30.5 12.2738 30.4953 12.4372 30.4913 12.5757V12.5757V12.5757V12.5758V12.5758C30.4884 12.6777 30.4858 12.7661 30.4858 12.805H27.0221C27.1 13.6388 27.7092 13.8791 28.3962 13.8791C29.0975 13.8791 29.65 13.7307 30.1317 13.4904V14.9036C29.65 15.1721 29.0125 15.3629 28.1696 15.3629C26.4412 15.3629 25.2371 14.2889 25.2371 12.162C25.2371 10.3672 26.2571 8.93991 27.9429 8.93991ZM27.9358 10.3743C27.4895 10.3743 27.0008 10.7064 27.0008 11.5049H28.8283C28.8283 10.7064 28.3679 10.3743 27.9358 10.3743ZM15.1221 9.58292L15.0088 9.06003H13.4788V15.2428H15.2496V11.0527C15.6676 10.5086 16.3759 10.6075 16.5955 10.6852V9.06003C16.3688 8.97524 15.5401 8.81979 15.1221 9.58292ZM17.0274 9.06003H18.8053V15.2428H17.0274V9.06003ZM22.5028 8.93991C21.8086 8.93991 21.3624 9.26494 21.1145 9.49106L21.0224 9.05296H19.4641V17.292L21.2349 16.9175L21.242 14.9178C21.497 15.1015 21.8724 15.3629 22.4957 15.3629C23.7637 15.3629 24.9182 14.3454 24.9182 12.1055C24.9112 10.0563 23.7424 8.93991 22.5028 8.93991ZM22.0778 13.8084C21.6599 13.8084 21.412 13.66 21.242 13.4763L21.2349 10.8548C21.419 10.6499 21.674 10.5086 22.0778 10.5086C22.7224 10.5086 23.1686 11.2293 23.1686 12.1549C23.1686 13.1018 22.7295 13.8084 22.0778 13.8084Z" fill="#6461FC"/>
</svg>
