<svg width="35" height="24" viewBox="0 0 35 24" fill="none" xmlns="http://www.w3.org/2000/svg">
<rect x="0.5" y="0.5" width="34" height="23" rx="3.5" fill="white" stroke="#D9D9D9"/>
<path d="M10.8277 5.00195H16.3435C17.1135 5.00195 17.5924 5.62953 17.4127 6.40204L14.8448 17.4274C14.6635 18.1972 13.8926 18.8253 13.1221 18.8253H7.6069C6.83802 18.8253 6.35806 18.1972 6.53768 17.4274L9.10674 6.40204C9.28636 5.62953 10.0568 5.00195 10.8277 5.00195Z" fill="#E21836"/>
<path d="M15.884 5H22.227C22.9969 5 22.6497 5.62758 22.4686 6.40009L19.901 17.4255C19.7209 18.1953 19.7771 18.8234 19.0057 18.8234H12.6627C11.8912 18.8234 11.4138 18.1953 11.595 17.4255L14.1625 6.40009C14.3448 5.62758 15.1137 5 15.884 5Z" fill="#00447C"/>
<path d="M21.9756 5H27.4914C28.2624 5 28.7413 5.62758 28.5602 6.40009L25.9926 17.4255C25.8114 18.1953 25.0399 18.8234 24.269 18.8234H18.7558C17.9844 18.8234 17.5059 18.1953 17.6866 17.4255L20.2546 6.40009C20.4342 5.62758 21.2041 5 21.9756 5Z" fill="#007B84"/>
<path d="M12.2678 8.53314C11.7006 8.53892 11.5331 8.53314 11.4796 8.5205C11.459 8.61824 11.0762 10.3839 11.0752 10.3854C10.9927 10.7426 10.9328 10.9972 10.7291 11.1616C10.6135 11.2572 10.4785 11.3033 10.322 11.3033C10.0705 11.3033 9.92392 11.1784 9.89932 10.9415L9.89461 10.8602C9.89461 10.8602 9.97125 10.3817 9.97125 10.379C9.97125 10.379 10.373 8.77003 10.4449 8.55734C10.4487 8.54524 10.4497 8.53892 10.4507 8.53314C9.66875 8.54 9.53014 8.53314 9.5206 8.5205C9.51535 8.53784 9.49599 8.6376 9.49599 8.6376L9.08581 10.4511L9.05058 10.6049L8.98242 11.108C8.98242 11.2572 9.01173 11.379 9.07008 11.482C9.25695 11.8086 9.79002 11.8575 10.0916 11.8575C10.4801 11.8575 10.8446 11.775 11.0909 11.6242C11.5184 11.3716 11.6303 10.9768 11.73 10.6259L11.7763 10.4459C11.7763 10.4459 12.1901 8.77473 12.2604 8.55734C12.2631 8.54524 12.2642 8.53892 12.2678 8.53314ZM13.6758 9.88125C13.576 9.88125 13.3937 9.90545 13.23 9.98571C13.1705 10.0162 13.1143 10.0515 13.0551 10.0865L13.1086 9.89335L13.0793 9.86081C12.732 9.93113 12.6543 9.94054 12.3335 9.98571L12.3066 10.0036C12.2694 10.3124 12.2363 10.5446 12.0982 11.1516C12.0457 11.3753 11.9911 11.6012 11.9364 11.8243L11.9511 11.8527C12.2799 11.8354 12.3796 11.8354 12.6653 11.8401L12.6884 11.8149C12.7247 11.629 12.7294 11.5854 12.8098 11.2089C12.8476 11.0303 12.9264 10.638 12.9652 10.4983C13.0366 10.4653 13.1071 10.4327 13.1743 10.4327C13.3344 10.4327 13.3149 10.5724 13.3087 10.6281C13.3019 10.7215 13.2435 11.0267 13.1837 11.2887L13.1438 11.4579C13.116 11.5828 13.0854 11.7042 13.0576 11.828L13.0697 11.8527C13.3937 11.8354 13.4925 11.8354 13.7692 11.8401L13.8017 11.8149C13.8518 11.5245 13.8664 11.4468 13.9551 11.024L13.9998 10.8297C14.0865 10.4495 14.1301 10.2567 14.0644 10.0997C13.9951 9.92373 13.8286 9.88125 13.6758 9.88125ZM15.2486 10.2793C15.0764 10.3124 14.9666 10.3344 14.8574 10.3487C14.7492 10.366 14.6437 10.3818 14.4772 10.4049L14.464 10.4169L14.4519 10.4264C14.4346 10.5504 14.4225 10.6575 14.3995 10.7835C14.38 10.9138 14.35 11.0618 14.3012 11.2745C14.2634 11.4373 14.244 11.494 14.2224 11.5513C14.2015 11.6086 14.1783 11.6642 14.1359 11.8243L14.1458 11.8391L14.1541 11.8527C14.3097 11.8453 14.4115 11.8401 14.5161 11.8391C14.6205 11.8354 14.7288 11.8391 14.8963 11.8401L14.9109 11.8281L14.9267 11.8149C14.9509 11.6705 14.9545 11.6317 14.9693 11.5612C14.9839 11.4857 15.0092 11.3811 15.0712 11.1017C15.1005 10.9705 15.1332 10.8397 15.1635 10.7058C15.1951 10.5724 15.2282 10.4411 15.2597 10.3098L15.255 10.294L15.2486 10.2793ZM15.2523 9.7426C15.0958 9.65024 14.8212 9.67954 14.6363 9.80713C14.452 9.93216 14.431 10.1096 14.587 10.2032C14.7408 10.293 15.0165 10.2663 15.1997 10.1376C15.3837 10.0099 15.4067 9.83402 15.2523 9.7426ZM16.1987 11.8816C16.5153 11.8816 16.8399 11.7944 17.0842 11.5355C17.2721 11.3255 17.3583 11.013 17.3881 10.8844C17.4853 10.4579 17.4096 10.2588 17.3146 10.1375C17.1702 9.95266 16.915 9.89338 16.6503 9.89338C16.4911 9.89338 16.112 9.9091 15.8158 10.1822C15.6031 10.3791 15.5049 10.6464 15.4456 10.9026C15.3857 11.1637 15.3169 11.6337 15.7491 11.8086C15.8825 11.8659 16.0748 11.8816 16.1987 11.8816ZM16.174 10.9221C16.247 10.5992 16.3332 10.3282 16.5531 10.3282C16.7255 10.3282 16.738 10.5298 16.6613 10.8538C16.6476 10.9258 16.5847 11.1932 16.4996 11.307C16.4402 11.3911 16.3699 11.442 16.2922 11.442C16.269 11.442 16.1315 11.442 16.1293 11.2378C16.1283 11.137 16.1488 11.034 16.174 10.9221ZM18.1796 11.8401L18.2043 11.815C18.2394 11.629 18.2452 11.5853 18.3229 11.2089C18.3618 11.0304 18.4422 10.6381 18.4799 10.4984C18.5515 10.4652 18.6207 10.4326 18.6901 10.4326C18.8491 10.4326 18.8298 10.5723 18.8234 10.628C18.8177 10.7216 18.7593 11.0266 18.6984 11.2886L18.6606 11.4578C18.6317 11.5828 18.6003 11.7041 18.5724 11.828L18.5845 11.8528C18.9096 11.8354 19.0047 11.8354 19.283 11.8401L19.3166 11.815C19.3654 11.5244 19.3786 11.4467 19.47 11.024L19.5135 10.8296C19.6007 10.4494 19.6448 10.2568 19.5802 10.0998C19.5088 9.92377 19.3413 9.88129 19.1906 9.88129C19.0907 9.88129 18.9075 9.90535 18.7447 9.98575C18.6864 10.0163 18.6281 10.0514 18.5708 10.0866L18.6207 9.89339L18.594 9.86072C18.2468 9.93117 18.1675 9.94058 17.8471 9.98575L17.8225 10.0036C17.7837 10.3124 17.7521 10.5445 17.614 11.1516C17.5614 11.3753 17.5068 11.6012 17.4523 11.8244L17.4669 11.8528C17.7962 11.8354 17.8944 11.8354 18.1796 11.8401ZM20.568 11.8527C20.5885 11.7529 20.7099 11.1617 20.711 11.1617C20.711 11.1617 20.8143 10.7278 20.8207 10.7121C20.8207 10.7121 20.8532 10.6669 20.8857 10.649H20.9336C21.3852 10.649 21.8951 10.649 22.2948 10.355C22.5668 10.1533 22.7527 9.85554 22.8357 9.49362C22.8572 9.40489 22.8731 9.29935 22.8731 9.19382C22.8731 9.05521 22.8452 8.91807 22.7648 8.81092C22.561 8.52577 22.1551 8.52053 21.6866 8.51838C21.6851 8.51838 21.4556 8.52053 21.4556 8.52053C20.8559 8.52792 20.6154 8.52577 20.5165 8.51367C20.5082 8.55737 20.4925 8.63507 20.4925 8.63507C20.4925 8.63507 20.2776 9.63076 20.2776 9.63237C20.2776 9.63237 19.7635 11.7493 19.7393 11.8491C20.263 11.8427 20.4777 11.8427 20.568 11.8527ZM20.9661 10.084C20.9661 10.084 21.1945 9.0903 21.1935 9.09406L21.2009 9.04311L21.2041 9.00425L21.2954 9.01366C21.2954 9.01366 21.7665 9.05413 21.7775 9.05521C21.9634 9.12713 22.0401 9.31253 21.9865 9.55453C21.9377 9.77568 21.7943 9.96162 21.61 10.0514C21.4582 10.1275 21.2722 10.1338 21.0807 10.1338H20.9567L20.9661 10.084ZM22.3883 10.9405C22.3279 11.1979 22.2586 11.6679 22.6887 11.8354C22.8258 11.8937 22.9487 11.9111 23.0736 11.9048C23.2055 11.8976 23.3277 11.8315 23.4409 11.7363C23.4306 11.7754 23.4204 11.8145 23.4102 11.8538L23.4297 11.8789C23.7391 11.8659 23.835 11.8659 24.1702 11.8685L24.2006 11.8453C24.2495 11.5576 24.2956 11.2783 24.4228 10.7278C24.4848 10.4642 24.5467 10.2031 24.6102 9.94055L24.6003 9.91165C24.2542 9.97577 24.1617 9.98949 23.8289 10.0367L23.8036 10.0572C23.8002 10.084 23.7967 10.1097 23.7935 10.1354C23.7417 10.0517 23.6667 9.98035 23.551 9.93585C23.4029 9.87763 23.0553 9.95265 22.7564 10.2248C22.5464 10.419 22.4456 10.6852 22.3883 10.9405ZM23.1151 10.9563C23.1892 10.6391 23.2743 10.3708 23.4948 10.3708C23.6342 10.3708 23.7076 10.4994 23.6927 10.7188C23.6808 10.7736 23.6681 10.8312 23.6529 10.8964C23.6308 10.9907 23.6069 11.0841 23.5836 11.1777C23.56 11.2417 23.5324 11.3021 23.5022 11.3422C23.4454 11.4226 23.3105 11.4725 23.2327 11.4725C23.2107 11.4725 23.0746 11.4725 23.0699 11.2719C23.0689 11.172 23.0894 11.0692 23.1151 10.9563ZM26.9105 9.90908L26.8837 9.87856C26.5413 9.94793 26.4793 9.95896 26.1647 10.0014L26.1416 10.0246C26.1405 10.0283 26.1396 10.0341 26.138 10.0394L26.1369 10.0341C25.9027 10.5744 25.9096 10.4579 25.7189 10.8832C25.7178 10.8639 25.7178 10.8518 25.7168 10.8312L25.669 9.90908L25.6391 9.87856C25.2804 9.94793 25.2719 9.95896 24.9406 10.0014L24.9148 10.0246C24.9112 10.0356 24.9112 10.0477 24.909 10.0609L24.9112 10.0656C24.9526 10.2772 24.9427 10.23 24.9842 10.5639C25.0036 10.7278 25.0294 10.8927 25.0487 11.0545C25.0814 11.3254 25.0997 11.4588 25.1396 11.8722C24.9159 12.2414 24.8629 12.3811 24.6476 12.7051L24.649 12.7083L24.4974 12.9482C24.48 12.9734 24.4643 12.9908 24.4423 12.9982C24.4181 13.0101 24.3866 13.0123 24.3429 13.0123H24.2589L24.134 13.4277L24.5624 13.4351C24.814 13.434 24.9721 13.3164 25.0572 13.1583L25.3266 12.6966H25.3223L25.3507 12.6641C25.5319 12.2739 26.9105 9.90908 26.9105 9.90908ZM22.3883 15.3651H22.2065L22.8793 13.1399H23.1025L23.1733 12.9107L23.1802 13.1656C23.1718 13.3232 23.2958 13.4629 23.6214 13.4397H23.998L24.1276 13.0113H23.9859C23.9044 13.0113 23.8666 12.9907 23.8713 12.9466L23.8645 12.6873H23.1671V12.6886C22.9417 12.6933 22.2684 12.7103 22.1321 12.7466C21.9671 12.789 21.7933 12.9141 21.7933 12.9141L21.8616 12.6846H21.2092L21.0733 13.1399L20.3916 15.3991H20.2593L20.1295 15.8245H21.4288L21.3852 15.9663H22.0254L22.0679 15.8245H22.2475L22.3883 15.3651ZM21.8552 13.5921C21.7508 13.621 21.5564 13.7086 21.5564 13.7086L21.7293 13.1399H22.2475L22.1225 13.5543C22.1225 13.5543 21.9624 13.5637 21.8552 13.5921ZM21.8652 14.4045C21.8652 14.4045 21.7024 14.4249 21.5952 14.4491C21.4897 14.4811 21.2918 14.582 21.2918 14.582L21.4703 13.9901H21.9913L21.8652 14.4045ZM21.5748 15.3703H21.0549L21.2056 14.8709H21.7239L21.5748 15.3703ZM22.8268 13.9901H23.5762L23.4685 14.3389H22.7092L22.5952 14.7202H23.2596L22.7565 15.4286C22.7213 15.4806 22.6897 15.499 22.6546 15.5137C22.6194 15.5315 22.5731 15.5525 22.5196 15.5525H22.3353L22.2086 15.9701H22.6907C22.9413 15.9701 23.0894 15.8561 23.1987 15.7064L23.5436 15.2343L23.6177 15.7137C23.6335 15.8035 23.698 15.8561 23.7417 15.8765C23.7899 15.9007 23.8398 15.9423 23.9103 15.9484C23.9858 15.9517 24.0404 15.9542 24.0767 15.9542H24.3136L24.4558 15.4869H24.3624C24.3088 15.4869 24.2164 15.4779 24.2007 15.4611C24.1849 15.4407 24.1849 15.4092 24.1765 15.3613L24.1013 14.8808H23.7936L23.9286 14.7202H24.6864L24.803 14.3389H24.1013L24.2106 13.9901H24.9101L25.0399 13.5601H22.9544L22.8268 13.9901ZM16.4975 15.4674L16.6724 14.8856H17.3913L17.5226 14.4528H16.8031L16.9129 14.0947H17.616L17.7463 13.6756H15.987L15.8594 14.0947H16.2591L16.1525 14.4528H15.7517L15.6189 14.893H16.0185L15.7853 15.6628C15.7539 15.7647 15.8001 15.8036 15.8294 15.8509C15.8594 15.897 15.8898 15.9275 15.9581 15.9448C16.0285 15.9606 16.0768 15.97 16.1424 15.97H16.9528L17.0972 15.4906L16.738 15.5399C16.6686 15.5399 16.4765 15.5316 16.4975 15.4674ZM16.5799 12.682L16.3978 13.0112C16.3588 13.0831 16.3237 13.1278 16.2921 13.1483C16.2643 13.1657 16.2091 13.1729 16.1293 13.1729H16.0342L15.9072 13.5941H16.2229C16.3746 13.5941 16.4912 13.5385 16.5469 13.5107C16.6067 13.4787 16.6224 13.4969 16.6687 13.4523L16.7753 13.3599H17.761L17.8918 12.9214H17.1703L17.2962 12.682H16.5799ZM18.0352 15.4759C18.0184 15.4517 18.0305 15.4091 18.0562 15.3204L18.3256 14.4286H19.284C19.4237 14.4266 19.5246 14.425 19.5902 14.4203C19.6606 14.4129 19.7372 14.3877 19.8207 14.3425C19.9069 14.2952 19.951 14.2453 19.9882 14.1881C20.0298 14.1309 20.0965 14.0059 20.1537 13.8131L20.4924 12.6846L19.4978 12.6904C19.4978 12.6904 19.1915 12.7356 19.0567 12.7854C18.9206 12.8411 18.7262 12.9965 18.7262 12.9965L18.816 12.6872H18.2016L17.3415 15.5399C17.311 15.6507 17.2905 15.7311 17.2858 15.7793C17.2842 15.8314 17.3514 15.8829 17.395 15.9217C17.4465 15.9606 17.5226 15.9542 17.5956 15.9606C17.6723 15.9663 17.7815 15.97 17.9322 15.97H18.4044L18.5493 15.4806L18.1266 15.5205C18.0814 15.5205 18.0488 15.4963 18.0352 15.4759ZM18.4994 13.8263H19.5061L19.4421 14.0269C19.4331 14.0316 19.4116 14.0169 19.3092 14.029H18.4374L18.4994 13.8263ZM18.7011 13.1535H19.7163L19.6433 13.3951C19.6433 13.3951 19.1648 13.3904 19.0881 13.4045C18.751 13.4629 18.554 13.643 18.554 13.643L18.7011 13.1535ZM19.4647 14.6986C19.4563 14.7286 19.4432 14.7469 19.4247 14.7606C19.4043 14.7737 19.3712 14.7785 19.3219 14.7785H19.1784L19.1869 14.5342H18.5903L18.5661 15.7284C18.5651 15.8146 18.5735 15.8645 18.6365 15.9044C18.6996 15.9543 18.8938 15.9606 19.1553 15.9606H19.5292L19.6642 15.5136L19.3387 15.5315L19.2305 15.5378C19.2157 15.5315 19.2016 15.5257 19.1858 15.51C19.1721 15.4964 19.149 15.5047 19.1528 15.4185L19.1553 15.1124L19.4967 15.0983C19.681 15.0983 19.7598 15.0383 19.827 14.9812C19.8911 14.9265 19.9121 14.8636 19.9363 14.7785L19.9936 14.5074H19.5245L19.4647 14.6986Z" fill="#FEFEFE"/>
</svg>
