<svg width="40" height="40" viewBox="0 0 40 40" fill="none" xmlns="http://www.w3.org/2000/svg">
<rect width="40" height="40" rx="20" fill="#6266F9"/>
<rect opacity="0.01" x="12" y="12.0156" width="15.9844" height="15.9844" fill="black"/>
<path fill-rule="evenodd" clip-rule="evenodd" d="M24.6546 28.001H15.3304C14.2269 28.001 13.3323 27.1065 13.3323 26.003V18.0108L13.0393 18.2106C12.7429 18.3547 12.3858 18.2604 12.1991 17.9888C12.0125 17.7172 12.0526 17.35 12.2934 17.125L19.6195 12.1299C19.8449 11.9775 20.1401 11.9775 20.3655 12.1299L27.6916 17.125C27.9969 17.331 28.0775 17.7454 27.8715 18.0507C27.6655 18.356 27.251 18.4365 26.9457 18.2306L26.6527 18.0108V26.003C26.6527 27.1065 25.7581 28.001 24.6546 28.001ZM22.6566 26.669H24.6546C25.0224 26.669 25.3206 26.3708 25.3206 26.003V17.125L19.9925 13.4885L14.6644 17.125V26.003C14.6644 26.3708 14.9626 26.669 15.3304 26.669H17.3284V22.0069C17.3284 21.639 17.6266 21.3409 17.9945 21.3409H21.9906C22.3584 21.3409 22.6566 21.639 22.6566 22.0069V26.669ZM18.6605 26.669H21.3245V22.6729H18.6605V26.669Z" fill="white"/>
</svg>
