<svg width="40" height="40" viewBox="0 0 40 40" fill="none" xmlns="http://www.w3.org/2000/svg">
<rect width="40" height="40" rx="20" fill="#FF9417"/>
<path d="M15.1116 13.6H24.8872C26.1826 13.6 27.2328 14.6502 27.2328 15.9455V22.3572C27.2328 23.6526 26.1826 24.7027 24.8872 24.7027H20.7553C20.5569 24.7027 20.3667 24.7845 20.2302 24.9297C20.2302 24.9298 20.2301 24.9298 20.23 24.9299L17.2353 28.1141V25.4236C17.2353 25.0254 16.9126 24.7027 16.5145 24.7027H15.1116C13.8162 24.7027 12.766 23.6526 12.766 22.3572V15.9455C12.766 14.6501 13.8161 13.6 15.1116 13.6Z" stroke="white" stroke-width="1.2"/>
<path d="M22.8848 19.1066L22.8848 19.1066C23.3984 18.593 23.3984 17.7604 22.8849 17.2469C22.3714 16.7333 21.5388 16.7333 21.0252 17.2469C21.0252 17.2469 21.0252 17.2469 21.0252 17.2469L20.6027 17.6693M22.8848 19.1066L20.6027 17.6693M22.8848 19.1066L19.9963 21.9956L17.1141 19.1133C17.1141 19.1133 17.1141 19.1133 17.1141 19.1133C16.6005 18.5997 16.6005 17.7671 17.114 17.2536M22.8848 19.1066L17.114 17.2536M20.6027 17.6693C20.2677 18.0043 19.7245 18.0043 19.3894 17.6693L18.9737 17.2536C18.4602 16.7401 17.6276 16.7401 17.1141 17.2536C17.1141 17.2536 17.114 17.2536 17.114 17.2536M20.6027 17.6693L17.114 17.2536" stroke="white" stroke-width="1.2"/>
</svg>
