<svg width="40" height="40" viewBox="0 0 40 40" fill="none" xmlns="http://www.w3.org/2000/svg">
<rect width="40" height="40" rx="20" fill="#FE9870"/>
<rect opacity="0.01" x="12" y="12" width="16" height="16" fill="black"/>
<path fill-rule="evenodd" clip-rule="evenodd" d="M17.4925 24.825C18.1365 24.825 18.6586 25.3471 18.6586 25.9912C18.6586 26.6352 18.1365 27.1574 17.4925 27.1574C16.8484 27.1574 16.3263 26.6352 16.3263 25.9912C16.3263 25.3471 16.8484 24.825 17.4925 24.825ZM24.4885 24.825C25.1325 24.825 25.6546 25.3471 25.6546 25.9912C25.6546 26.6352 25.1325 27.1574 24.4885 27.1574C23.8444 27.1574 23.3223 26.6352 23.3223 25.9912C23.3223 25.3471 23.8444 24.825 24.4885 24.825ZM25.48 24.6589H17.363C16.558 24.6589 15.8546 24.0258 15.757 23.2186L14.9103 17.2571L14.4266 14.4606C14.4072 14.3032 14.2581 14.1649 14.1235 14.1649H13.487C13.119 14.1649 12.8203 13.8663 12.8203 13.4987C12.8203 13.1307 13.1189 12.832 13.487 12.832H14.1235C14.9369 12.832 15.6478 13.4646 15.7452 14.2673L16.227 17.0503L17.0784 23.0457C17.0964 23.1945 17.2361 23.3265 17.3625 23.3265H25.4795C25.8479 23.3265 26.1461 23.6245 26.1461 23.9927C26.1461 24.3607 25.848 24.6589 25.48 24.6589ZM17.9875 22.6599C17.6395 22.6599 17.3491 22.3914 17.3233 22.0426C17.296 21.6755 17.5717 21.3562 17.9382 21.3295L24.7285 20.8295C24.888 20.8286 25.0322 20.7012 25.0513 20.5485L25.837 16.054C25.852 15.9275 25.8159 15.7924 25.7506 15.7186C25.7176 15.6812 25.6819 15.6649 25.6355 15.6649H16.9845C16.6165 15.6649 16.3178 15.3664 16.3178 14.9987C16.3178 14.6307 16.6164 14.3325 16.9845 14.3325H25.6365C26.0664 14.3325 26.4622 14.5116 26.7492 14.8357C27.0739 15.202 27.2215 15.7139 27.1562 16.2494L26.3699 20.7448C26.2743 21.533 25.5672 22.1614 24.7792 22.1609L18.0378 22.6578C18.0125 22.6595 18.0125 22.6595 17.9875 22.6599Z" fill="white"/>
</svg>
