<svg width="40" height="40" viewBox="0 0 40 40" fill="none" xmlns="http://www.w3.org/2000/svg">
<rect width="40" height="40" rx="20" fill="#FF5A5A"/>
<path d="M27.3671 13.8432C26.9415 13.4174 26.4361 13.0796 25.8799 12.8491C25.3237 12.6186 24.7275 12.5 24.1254 12.5C23.5234 12.5 22.9272 12.6186 22.371 12.8491C21.8147 13.0796 21.3094 13.4174 20.8838 13.8432L20.0004 14.7265L19.1171 13.8432C18.2573 12.9834 17.0913 12.5004 15.8754 12.5004C14.6596 12.5004 13.4935 12.9834 12.6338 13.8432C11.774 14.7029 11.291 15.869 11.291 17.0849C11.291 18.3007 11.774 19.4668 12.6338 20.3265L13.5171 21.2099L20.0004 27.6932L26.4838 21.2099L27.3671 20.3265C27.7929 19.9009 28.1307 19.3955 28.3612 18.8393C28.5917 18.2831 28.7103 17.6869 28.7103 17.0849C28.7103 16.4828 28.5917 15.8866 28.3612 15.3304C28.1307 14.7742 27.7929 14.2688 27.3671 13.8432V13.8432Z" stroke="white" stroke-width="2" stroke-linecap="round" stroke-linejoin="round"/>
</svg>
