<svg width="40" height="40" viewBox="0 0 40 40" fill="none" xmlns="http://www.w3.org/2000/svg">
<rect width="40" height="40" rx="20" fill="#DC0C1F"/>
<path d="M25 16.668C25 15.3419 24.4732 14.0701 23.5355 13.1324C22.5979 12.1948 21.3261 11.668 20 11.668C18.6739 11.668 17.4021 12.1948 16.4645 13.1324C15.5268 14.0701 15 15.3419 15 16.668C15 22.5013 12.5 24.168 12.5 24.168H27.5C27.5 24.168 25 22.5013 25 16.668Z" stroke="white" stroke-width="2" stroke-linecap="round" stroke-linejoin="round"/>
<path d="M21.4419 27.5C21.2954 27.7526 21.0851 27.9622 20.8321 28.1079C20.5791 28.2537 20.2922 28.3304 20.0003 28.3304C19.7083 28.3304 19.4214 28.2537 19.1684 28.1079C18.9154 27.9622 18.7051 27.7526 18.5586 27.5" stroke="white" stroke-width="2" stroke-linecap="round" stroke-linejoin="round"/>
</svg>
