<svg width="40" height="41" viewBox="0 0 40 41" fill="none" xmlns="http://www.w3.org/2000/svg">
<rect y="0.015625" width="40" height="40" rx="20" fill="#FF9700"/>
<path d="M28.3333 22.5C28.3333 25.725 25.725 28.3333 22.5 28.3333L23.375 26.875" stroke="white" stroke-width="1.5" stroke-linecap="round" stroke-linejoin="round"/>
<path d="M11.668 17.5013C11.668 14.2763 14.2763 11.668 17.5013 11.668L16.6263 13.1263" stroke="white" stroke-width="1.5" stroke-linecap="round" stroke-linejoin="round"/>
<path d="M21.418 13.7109L24.7346 15.6276L28.018 13.7193" stroke="white" stroke-width="1.5" stroke-linecap="round" stroke-linejoin="round"/>
<path d="M24.7344 19.0211V15.6211" stroke="white" stroke-width="1.5" stroke-linecap="round" stroke-linejoin="round"/>
<path d="M23.95 11.843L21.95 12.9513C21.5 13.2013 21.125 13.8346 21.125 14.3513V16.468C21.125 16.9846 21.4917 17.618 21.95 17.868L23.95 18.9763C24.375 19.218 25.075 19.218 25.5083 18.9763L27.5083 17.868C27.9583 17.618 28.3333 16.9846 28.3333 16.468V14.3513C28.3333 13.8346 27.9667 13.2013 27.5083 12.9513L25.5083 11.843C25.0833 11.6096 24.3833 11.6096 23.95 11.843Z" stroke="white" stroke-width="1.5" stroke-linecap="round" stroke-linejoin="round"/>
<path d="M11.9609 22.875L15.2693 24.7917L18.5609 22.8833" stroke="white" stroke-width="1.5" stroke-linecap="round" stroke-linejoin="round"/>
<path d="M15.2695 28.1852V24.7852" stroke="white" stroke-width="1.5" stroke-linecap="round" stroke-linejoin="round"/>
<path d="M14.493 21.007L12.493 22.1153C12.043 22.3653 11.668 22.9987 11.668 23.5153V25.632C11.668 26.1487 12.0346 26.782 12.493 27.032L14.493 28.1404C14.918 28.382 15.618 28.382 16.0513 28.1404L18.0513 27.032C18.5013 26.782 18.8763 26.1487 18.8763 25.632V23.5153C18.8763 22.9987 18.5096 22.3653 18.0513 22.1153L16.0513 21.007C15.618 20.7737 14.918 20.7737 14.493 21.007Z" stroke="white" stroke-width="1.5" stroke-linecap="round" stroke-linejoin="round"/>
</svg>
