<svg width="40" height="41" viewBox="0 0 40 41" fill="none" xmlns="http://www.w3.org/2000/svg">
<rect y="0.015625" width="40" height="40" rx="20" fill="#4CAF52"/>
<path d="M12.6406 16.2031L19.9989 20.4614L27.3073 16.2281" stroke="white" stroke-width="1.5" stroke-linecap="round" stroke-linejoin="round"/>
<path d="M20 28.0115V20.4531" stroke="white" stroke-width="1.5" stroke-linecap="round" stroke-linejoin="round"/>
<path d="M28.0088 20.693V17.643C28.0088 16.493 27.1838 15.093 26.1755 14.5347L21.7255 12.068C20.7755 11.5346 19.2255 11.5346 18.2755 12.068L13.8255 14.5347C12.8172 15.093 11.9922 16.493 11.9922 17.643V22.3597C11.9922 23.5097 12.8172 24.9096 13.8255 25.468L18.2755 27.9347C18.7505 28.2013 19.3755 28.3347 20.0005 28.3347C20.6255 28.3347 21.2505 28.2013 21.7255 27.9347" stroke="white" stroke-width="1.5" stroke-linecap="round" stroke-linejoin="round"/>
<path d="M25.9987 27.8334C27.4715 27.8334 28.6654 26.6394 28.6654 25.1667C28.6654 23.6939 27.4715 22.5 25.9987 22.5C24.5259 22.5 23.332 23.6939 23.332 25.1667C23.332 26.6394 24.5259 27.8334 25.9987 27.8334Z" stroke="white" stroke-width="1.5" stroke-linecap="round" stroke-linejoin="round"/>
<path d="M29.1654 28.3333L28.332 27.5" stroke="white" stroke-width="1.5" stroke-linecap="round" stroke-linejoin="round"/>
</svg>
