<svg width="40" height="41" viewBox="0 0 40 41" fill="none" xmlns="http://www.w3.org/2000/svg">
<rect y="0.015625" width="40" height="40" rx="20" fill="#FE5722"/>
<path d="M25.2346 18.1329V20.7495C25.2346 20.9162 25.2263 21.0828 25.2096 21.2412C25.0596 23.0078 24.018 23.8912 22.1013 23.8912H21.843C21.6763 23.8912 21.518 23.9662 21.4263 24.0995L20.643 25.1495C20.293 25.6162 19.7346 25.6162 19.3846 25.1495L18.6013 24.0995C18.518 23.9912 18.3263 23.8912 18.1846 23.8912H17.9263C15.8346 23.8912 14.793 23.3745 14.793 20.7579V18.1412C14.793 16.2245 15.6763 15.1829 17.443 15.0329C17.6013 15.0162 17.768 15.0079 17.9346 15.0079H22.1263C24.1846 14.9995 25.2346 16.0495 25.2346 18.1329Z" stroke="white" stroke-width="1.5" stroke-miterlimit="10" stroke-linecap="round" stroke-linejoin="round"/>
<path d="M17.5013 28.3346H22.5013C26.668 28.3346 28.3346 26.668 28.3346 22.5013V17.5013C28.3346 13.3346 26.668 11.668 22.5013 11.668H17.5013C13.3346 11.668 11.668 13.3346 11.668 17.5013V22.5013C11.668 26.668 13.3346 28.3346 17.5013 28.3346Z" stroke="white" stroke-width="1.5" stroke-linecap="round" stroke-linejoin="round"/>
</svg>
