<svg width="40" height="41" viewBox="0 0 40 41" fill="none" xmlns="http://www.w3.org/2000/svg">
<rect y="0.015625" width="40" height="40" rx="20" fill="#00BCD5"/>
<path d="M11.668 28.332H28.3346" stroke="white" stroke-width="1.5" stroke-miterlimit="10" stroke-linecap="round" stroke-linejoin="round"/>
<path d="M12.457 28.3344L12.4987 18.3093C12.4987 17.801 12.7404 17.3177 13.1404 17.0011L18.9737 12.4594C19.5737 11.9927 20.4154 11.9927 21.0237 12.4594L26.857 16.9927C27.2654 17.3094 27.4987 17.7927 27.4987 18.3093V28.3344" stroke="white" stroke-width="1.5" stroke-miterlimit="10" stroke-linejoin="round"/>
<path d="M20.8346 24.168H19.168C18.4763 24.168 17.918 24.7263 17.918 25.418V28.3346H22.0846V25.418C22.0846 24.7263 21.5263 24.168 20.8346 24.168Z" stroke="white" stroke-width="1.5" stroke-miterlimit="10" stroke-linejoin="round"/>
<path d="M17.918 21.4596H16.2513C15.793 21.4596 15.418 21.0846 15.418 20.6263V19.3763C15.418 18.918 15.793 18.543 16.2513 18.543H17.918C18.3763 18.543 18.7513 18.918 18.7513 19.3763V20.6263C18.7513 21.0846 18.3763 21.4596 17.918 21.4596Z" stroke="white" stroke-width="1.5" stroke-miterlimit="10" stroke-linejoin="round"/>
<path d="M23.75 21.4596H22.0833C21.625 21.4596 21.25 21.0846 21.25 20.6263V19.3763C21.25 18.918 21.625 18.543 22.0833 18.543H23.75C24.2083 18.543 24.5833 18.918 24.5833 19.3763V20.6263C24.5833 21.0846 24.2083 21.4596 23.75 21.4596Z" stroke="white" stroke-width="1.5" stroke-miterlimit="10" stroke-linejoin="round"/>
<path d="M25.8323 15.832L25.8073 13.332H22.1406" stroke="white" stroke-width="1.5" stroke-miterlimit="10" stroke-linecap="round" stroke-linejoin="round"/>
</svg>
