<svg width="40" height="41" viewBox="0 0 40 41" fill="none" xmlns="http://www.w3.org/2000/svg">
<rect y="0.015625" width="40" height="40" rx="20" fill="#009788"/>
<path d="M22.5013 12.668V21.0013C22.5013 21.918 21.7513 22.668 20.8346 22.668H11.668V16.0013C11.668 14.1596 13.1596 12.668 15.0013 12.668H22.5013Z" stroke="white" stroke-width="1.5" stroke-linecap="round" stroke-linejoin="round"/>
<path d="M28.3346 22.668V25.168C28.3346 26.5513 27.218 27.668 25.8346 27.668H25.0013C25.0013 26.7513 24.2513 26.0013 23.3346 26.0013C22.418 26.0013 21.668 26.7513 21.668 27.668H18.3346C18.3346 26.7513 17.5846 26.0013 16.668 26.0013C15.7513 26.0013 15.0013 26.7513 15.0013 27.668H14.168C12.7846 27.668 11.668 26.5513 11.668 25.168V22.668H20.8346C21.7513 22.668 22.5013 21.918 22.5013 21.0013V15.168H24.0346C24.6346 15.168 25.1846 15.493 25.4846 16.0096L26.9096 18.5013H25.8346C25.3763 18.5013 25.0013 18.8763 25.0013 19.3346V21.8346C25.0013 22.293 25.3763 22.668 25.8346 22.668H28.3346Z" stroke="white" stroke-width="1.5" stroke-linecap="round" stroke-linejoin="round"/>
<path d="M16.6667 29.3333C17.5871 29.3333 18.3333 28.5871 18.3333 27.6667C18.3333 26.7462 17.5871 26 16.6667 26C15.7462 26 15 26.7462 15 27.6667C15 28.5871 15.7462 29.3333 16.6667 29.3333Z" stroke="white" stroke-width="1.5" stroke-linecap="round" stroke-linejoin="round"/>
<path d="M23.3346 29.3333C24.2551 29.3333 25.0013 28.5871 25.0013 27.6667C25.0013 26.7462 24.2551 26 23.3346 26C22.4142 26 21.668 26.7462 21.668 27.6667C21.668 28.5871 22.4142 29.3333 23.3346 29.3333Z" stroke="white" stroke-width="1.5" stroke-linecap="round" stroke-linejoin="round"/>
<path d="M28.3333 21V22.6667H25.8333C25.375 22.6667 25 22.2917 25 21.8333V19.3333C25 18.875 25.375 18.5 25.8333 18.5H26.9083L28.3333 21Z" stroke="white" stroke-width="1.5" stroke-linecap="round" stroke-linejoin="round"/>
</svg>
